<?xml version="1.0" standalone="no"?>
<!DOCTYPE svg PUBLIC "-//W3C//DTD SVG 20010904//EN"
 "http://www.w3.org/TR/2001/REC-SVG-20010904/DTD/svg10.dtd">
<svg version="1.0" xmlns="http://www.w3.org/2000/svg"
 width="640.000000pt" height="640.000000pt" viewBox="0 0 640.000000 640.000000"
 preserveAspectRatio="xMidYMid meet">
<metadata>
Created by potrace 1.14, written by Peter Selinger 2001-2017
</metadata>
<g transform="translate(0.000000,640.000000) scale(0.100000,-0.100000)"
fill="#000000" stroke="none">
<path d="M90 6388 c-30 -5 -63 -7 -72 -4 -17 4 -18 -9 -18 -159 0 -111 4 -170
12 -186 7 -13 53 -64 103 -113 67 -66 103 -93 139 -106 52 -19 51 -17 47 -96
-1 -8 -14 -28 -29 -44 -24 -23 -40 -29 -98 -35 -123 -11 -124 -12 -130 -95 -2
-32 -9 -49 -24 -59 -20 -13 -20 -22 -20 -396 0 -344 2 -384 17 -396 17 -15 17
-26 -1 191 -1 14 6 41 16 60 10 19 18 48 18 64 0 16 5 46 12 67 10 36 14 39
49 39 33 0 40 4 45 25 3 14 3 42 0 63 -3 20 -7 43 -8 50 -1 6 -4 12 -7 12 -11
0 -45 -71 -44 -91 1 -10 -3 -19 -9 -19 -5 0 -8 -7 -4 -15 7 -19 -23 -20 -48
-2 -14 10 -15 18 -7 37 5 14 12 37 15 51 6 29 59 89 79 89 16 0 58 -55 81
-107 11 -24 24 -43 31 -43 6 0 18 -11 25 -25 l13 -25 342 0 c212 0 345 -4 351
-10 6 -6 22 -6 44 0 44 13 50 12 50 0 0 -16 -62 -50 -93 -50 -15 0 -35 -4 -45
-9 -9 -5 -35 -14 -57 -21 -23 -7 -52 -27 -68 -46 -29 -35 -57 -45 -57 -20 0 8
6 21 13 28 7 7 22 27 33 43 l19 30 -27 -17 c-15 -10 -33 -18 -41 -18 -7 0 -18
-20 -25 -45 -9 -35 -17 -46 -38 -51 -31 -8 -44 4 -53 48 -7 33 -8 33 -76 41
-96 11 -195 13 -195 5 0 -3 8 -9 18 -11 16 -4 16 -5 -1 -6 -12 -1 -22 10 -28
29 -12 34 -41 40 -77 14 -27 -19 -29 -44 -2 -44 25 0 92 -31 107 -50 10 -12 8
-19 -15 -37 -15 -13 -37 -23 -49 -23 -12 0 -31 -12 -42 -27 -12 -16 -25 -33
-31 -40 -14 -17 0 -22 48 -20 27 1 42 6 42 14 0 22 18 14 24 -11 4 -16 19 -29
46 -40 22 -9 40 -20 40 -24 0 -9 -29 -25 -64 -36 -14 -5 -16 -9 -7 -20 30 -36
118 -24 182 24 17 14 40 25 50 25 22 1 48 32 49 58 0 15 7 18 37 15 33 -3 39
-7 48 -38 6 -19 15 -44 21 -55 15 -26 24 -85 26 -165 1 -53 5 -68 21 -82 l21
-16 -28 -37 c-15 -20 -38 -40 -50 -44 -68 -26 -94 -30 -142 -22 l-52 8 9 -31
c5 -17 22 -52 39 -79 16 -27 30 -53 30 -58 0 -14 -48 -10 -123 10 -67 18 -68
18 -81 -1 -8 -11 -19 -17 -25 -13 -7 3 -11 -2 -11 -14 0 -24 -41 -71 -63 -71
-19 0 -19 -36 0 -65 7 -11 13 -30 13 -43 0 -13 5 -33 11 -44 8 -16 8 -22 -2
-29 -8 -4 -19 -23 -25 -41 l-11 -33 -154 -5 c-110 -4 -129 -6 -66 -8 48 -1 87
-4 87 -7 0 -2 -8 -21 -17 -41 -17 -34 -17 -37 0 -49 16 -11 13 -17 -33 -63
-57 -58 -63 -86 -24 -123 20 -19 36 -24 82 -24 43 0 56 3 54 14 -2 7 4 21 12
30 8 9 18 36 22 60 5 31 13 46 30 53 13 6 24 19 24 29 0 10 12 21 30 27 16 6
42 23 56 39 25 27 29 27 141 29 67 1 120 7 126 13 7 7 67 11 164 11 128 0 153
-2 153 -15 0 -14 40 -42 40 -28 0 4 6 -3 13 -16 7 -15 26 -28 45 -33 23 -6 32
-14 32 -29 0 -11 7 -22 15 -25 8 -4 15 -10 15 -14 0 -7 -39 -22 -65 -25 -108
-12 -126 -17 -123 -33 2 -11 19 -20 51 -26 36 -6 51 -14 59 -32 6 -13 19 -26
30 -29 10 -4 19 -12 19 -18 1 -7 3 -27 5 -44 4 -56 24 -137 39 -159 7 -12 21
-75 29 -140 9 -65 21 -153 26 -194 14 -108 13 -150 -5 -150 -14 0 -37 -31 -34
-47 4 -21 -2 -33 -16 -33 -9 0 -18 -8 -22 -17 -3 -10 -18 -30 -32 -45 -14 -14
-31 -32 -38 -40 -7 -7 -19 -19 -27 -26 -9 -6 -13 -18 -11 -25 11 -29 -47 -37
-262 -37 -118 0 -213 4 -213 9 0 5 -11 12 -25 15 -13 3 -29 15 -35 26 -15 28
-70 28 -70 0 0 -11 5 -20 10 -20 6 0 10 -7 10 -15 0 -13 -32 -15 -225 -15
l-225 0 0 -1280 0 -1280 34 0 34 0 -5 230 c-5 181 -3 236 7 255 18 33 38 32
46 -2 3 -16 18 -53 32 -83 22 -47 26 -72 30 -178 3 -87 1 -126 -8 -137 -6 -8
-16 -30 -20 -50 l-8 -35 369 0 369 0 0 25 c0 18 -5 25 -19 25 -10 0 -21 7 -25
15 -7 20 -32 19 -64 -3 -15 -10 -34 -21 -43 -24 -22 -8 -75 17 -89 41 -6 12
-17 21 -24 21 -17 0 -25 20 -17 41 4 12 18 16 56 15 47 -1 50 0 53 27 2 15 -3
34 -12 42 -18 18 -6 55 23 70 10 6 33 18 51 28 29 17 60 16 33 -1 -6 -4 -14
-26 -18 -49 -6 -40 -5 -43 25 -58 33 -17 60 -8 60 20 0 7 7 18 15 25 8 7 15
23 15 37 0 13 11 45 24 71 13 26 21 53 18 61 -2 7 1 31 9 53 15 47 2 94 -37
133 -13 13 -24 29 -24 34 0 17 -39 7 -44 -11 -5 -23 11 -86 30 -113 18 -26 18
-75 0 -75 -7 0 -19 -7 -26 -15 -17 -21 -54 -18 -130 8 -43 15 -66 29 -68 41
-5 22 37 68 55 62 7 -3 15 -1 19 5 3 5 14 7 25 4 13 -4 19 -2 19 9 0 9 7 16
15 16 8 0 15 3 16 8 0 4 2 16 4 27 3 17 1 17 -15 -5 -15 -20 -21 -23 -31 -12
-7 6 -31 12 -54 12 -29 0 -44 5 -52 19 -7 11 -23 21 -35 23 -31 4 -37 44 -8
53 17 5 19 10 9 21 -9 11 -8 19 5 39 19 28 21 55 5 55 -16 0 -5 101 15 137 8
15 22 45 32 66 14 31 20 36 38 31 27 -8 46 -24 46 -38 0 -6 16 -26 35 -45 23
-22 33 -40 30 -51 -9 -29 31 -54 88 -55 45 0 52 3 52 19 0 24 79 47 132 39 30
-5 35 -3 31 13 -3 18 -64 67 -105 84 -47 20 -23 29 62 24 79 -5 85 -4 85 14 0
27 -87 71 -152 78 -29 3 -66 7 -81 8 -40 4 -52 19 -37 46 7 12 10 38 8 56 l-4
34 168 0 168 0 -2 -82 c-1 -47 3 -92 10 -104 8 -14 11 -72 9 -168 -1 -111 1
-146 11 -146 16 0 15 -6 -4 -36 -15 -23 -15 -24 0 -18 15 6 17 -2 14 -67 l-3
-74 -42 -13 c-42 -13 -43 -15 -67 -95 -14 -45 -23 -83 -20 -86 12 -12 62 42
94 100 l35 64 3 -278 2 -278 180 1 c125 1 180 5 180 13 0 8 4 7 12 -1 8 -8 46
-12 107 -12 l96 1 -57 31 c-32 17 -58 36 -58 43 0 7 -9 20 -20 30 -11 10 -20
26 -20 35 0 10 -7 23 -15 30 -8 7 -15 16 -15 21 0 5 -15 31 -34 57 -57 81 -73
124 -81 214 -1 15 -12 44 -24 64 -29 49 -36 98 -34 219 4 175 10 187 108 210
51 11 67 11 122 -2 67 -17 92 -10 80 21 -7 18 -32 30 -94 46 -26 7 -43 17 -43
25 0 8 -7 15 -15 15 -8 0 -15 4 -15 9 0 5 -3 17 -7 26 -5 15 -3 16 17 5 12 -7
20 -8 16 -2 -3 5 1 13 9 16 8 3 14 11 13 18 -4 19 81 57 127 57 32 0 47 -6 74
-34 19 -19 47 -37 63 -40 31 -7 150 23 143 36 -10 15 51 30 79 19 15 -5 42
-10 60 -10 19 0 39 -7 46 -15 6 -8 22 -17 33 -21 49 -14 74 -29 83 -48 5 -13
17 -20 29 -19 11 1 14 0 7 -3 -6 -3 -12 -17 -12 -30 0 -13 -1 -24 -3 -24 -1 0
-27 9 -57 20 -30 11 -65 20 -78 20 -43 0 -154 -33 -159 -47 -10 -27 11 -34 68
-22 136 28 139 28 192 0 35 -18 52 -34 55 -51 7 -32 8 -300 2 -320 -3 -8 -7
-17 -10 -20 -3 -3 -14 -34 -24 -70 -19 -71 -52 -140 -100 -210 -42 -61 -49
-74 -91 -157 -27 -54 -47 -80 -81 -105 l-46 -33 62 -3 c61 -3 63 -2 100 37 47
52 60 52 60 1 l0 -40 765 0 765 0 0 109 0 109 56 38 c48 33 54 41 49 64 -15
58 -59 71 -90 27 -14 -20 -15 -18 -15 28 0 45 3 52 31 68 23 13 29 22 24 35
-3 9 -11 36 -18 59 -6 24 -15 43 -20 43 -4 0 -5 4 -2 10 3 5 1 10 -5 10 -6 0
-10 -6 -9 -12 1 -7 1 -39 0 -70 -1 -51 -4 -58 -21 -58 -24 0 -36 -22 -45 -82
-4 -27 -10 -48 -14 -48 -16 0 -41 74 -41 120 0 27 -4 52 -10 55 -5 3 -10 15
-10 25 0 10 -6 25 -14 32 -7 8 -21 28 -29 45 -9 17 -35 47 -57 65 -32 28 -40
41 -40 69 0 19 7 43 15 53 8 11 15 30 15 42 0 12 16 41 35 64 19 23 35 48 35
56 0 16 -34 39 -72 48 -34 8 -35 15 -4 61 14 20 22 43 19 51 -7 18 -55 44 -80
44 -11 0 -45 7 -78 15 -38 10 -61 12 -65 5 -3 -5 -22 -12 -40 -16 l-35 -5 24
20 c13 12 32 21 43 21 13 0 25 13 36 40 l17 40 145 0 145 0 30 -53 c19 -33 42
-58 62 -67 l33 -15 0 -122 c0 -68 4 -124 10 -128 11 -7 16 15 25 100 9 85 23
132 44 147 10 7 21 25 25 40 6 26 36 40 36 18 0 -5 7 -10 15 -10 18 0 19 -14
5 -41 -8 -15 -7 -19 5 -19 18 0 19 -4 3 -29 -6 -10 -8 -26 -5 -36 6 -13 15
-15 46 -10 33 5 41 3 54 -16 15 -20 15 -24 -4 -50 l-20 -28 26 -23 c19 -16 24
-29 20 -45 -4 -19 0 -23 30 -29 22 -4 48 -1 68 7 17 8 37 14 42 14 6 1 22 6
37 13 15 6 38 13 50 15 13 1 32 8 44 14 17 10 27 8 57 -14 30 -21 39 -24 52
-13 13 11 14 4 14 -51 -1 -38 3 -65 10 -67 6 -2 11 -11 11 -19 0 -9 6 -13 14
-10 23 9 29 -29 10 -58 -9 -14 -19 -25 -23 -26 -3 0 -37 -2 -76 -5 -41 -3 -77
-11 -86 -20 -12 -11 -30 -13 -72 -8 -49 6 -57 10 -68 35 -11 28 -9 55 6 93 7
17 5 18 -26 12 -19 -3 -44 -8 -57 -10 -22 -4 -98 -63 -136 -105 -17 -19 -18
-28 -8 -108 16 -136 29 -180 69 -244 55 -85 97 -95 76 -17 -15 56 -6 79 18 47
10 -13 19 -29 19 -36 0 -7 7 -16 15 -21 21 -11 24 -59 8 -100 -11 -26 -12 -41
-3 -68 7 -19 9 -43 5 -52 -4 -9 -9 -27 -11 -40 l-4 -22 383 0 c211 0 386 2
389 5 3 4 2 24 -3 45 -5 23 -5 55 0 77 l9 38 1 -36 c1 -20 4 -57 7 -83 l7 -46
588 0 c576 0 589 0 589 19 0 30 19 35 26 6 6 -25 8 -25 100 -25 l94 0 0 640 0
640 -47 0 c-32 0 -60 8 -90 25 -32 19 -44 23 -47 13 -3 -7 -6 -20 -9 -28 -2
-8 7 -31 20 -50 12 -19 23 -43 23 -53 0 -19 -28 -35 -39 -21 -13 19 -108 62
-152 68 -27 4 -54 15 -64 26 -17 19 -33 20 -261 20 -134 0 -245 4 -248 8 -13
22 -15 70 -3 75 19 7 13 55 -13 112 -18 40 -21 61 -17 114 3 46 1 68 -8 78 -7
7 -16 18 -18 25 -4 9 -8 10 -14 2 -4 -6 -18 -14 -31 -18 -12 -4 -20 -11 -17
-16 3 -5 -8 -24 -25 -43 -16 -19 -30 -40 -30 -47 0 -30 -11 1 -17 46 -3 27 -9
54 -13 59 -13 17 7 54 27 50 10 -1 17 -7 16 -12 -1 -5 9 -10 23 -11 28 -2 32
19 8 39 -14 11 -13 14 10 26 26 14 34 37 16 48 -5 3 -18 1 -28 -4 -16 -8 -21
-6 -31 16 -6 14 -9 28 -6 31 2 3 -4 12 -16 20 -15 10 -19 21 -15 38 4 15 2 24
-5 24 -7 0 -9 9 -5 24 7 27 -11 76 -27 76 -14 0 -3 70 18 114 21 44 50 63 71
46 17 -15 99 -5 131 16 30 19 36 18 24 -5 -10 -18 -6 -31 10 -31 3 0 10 10 14
23 l7 22 7 -25 c5 -19 13 -25 34 -24 14 1 24 -2 22 -6 -2 -4 27 -6 65 -5 39 1
70 -2 70 -7 0 -4 7 -8 15 -8 8 0 15 -8 15 -19 0 -10 3 -32 6 -48 4 -23 0 -37
-22 -62 -29 -34 -88 -161 -99 -212 -6 -27 -3 -31 40 -50 32 -14 56 -19 74 -14
14 4 44 7 65 7 28 0 44 6 57 21 16 21 16 22 -11 38 -26 16 -65 92 -56 108 6 9
19 100 18 121 -1 8 -4 38 -8 65 -4 32 -1 70 9 106 13 51 13 59 -2 83 -8 14
-19 26 -23 26 -3 0 -13 6 -20 13 -26 24 -74 54 -96 61 -14 5 -22 14 -20 24 3
14 16 17 68 17 36 0 72 4 80 9 24 16 104 14 116 -3 13 -17 49 -7 38 11 -5 8
-2 9 9 5 11 -4 14 -2 11 7 -3 7 3 19 12 27 12 9 15 10 10 2 -5 -9 -1 -13 12
-13 11 0 34 -10 53 -23 19 -12 55 -35 81 -50 65 -38 70 -50 19 -45 -22 2 -41
1 -41 -3 0 -4 -15 -9 -32 -12 -75 -11 -157 -58 -133 -75 6 -4 10 -13 11 -19 2
-27 4 -31 17 -29 6 1 23 8 37 16 35 19 154 40 226 40 47 0 65 4 78 19 15 16
15 19 1 31 -8 7 -15 28 -15 47 0 27 8 42 32 65 l33 31 6 -29 c4 -19 7 -3 8 44
l1 72 -34 0 c-19 0 -37 4 -40 9 -4 5 -9 81 -12 168 -6 150 -5 160 16 206 13
27 34 55 47 64 l23 15 0 1110 c0 725 -4 1107 -10 1103 -6 -3 -10 -15 -10 -25
0 -11 -12 -26 -27 -34 -16 -8 -39 -24 -52 -35 -29 -25 -95 -28 -118 -6 -10 11
-14 30 -11 59 2 26 -2 48 -9 55 -16 14 -8 33 20 50 21 13 22 13 4 -6 -14 -17
-15 -20 -2 -20 9 0 18 11 22 24 l6 25 16 -24 c9 -14 23 -22 34 -20 10 2 17 0
16 -5 -4 -21 2 -43 11 -43 5 0 26 16 46 35 19 19 42 35 50 35 11 0 14 17 14
78 -1 57 -3 72 -11 60 -15 -27 -56 -22 -87 10 -28 30 -82 56 -117 57 -11 0
-20 6 -20 13 0 15 -26 33 -37 26 -4 -3 -8 2 -8 10 0 8 -10 22 -22 30 -20 14
-20 16 -4 22 17 7 17 8 -3 23 l-22 17 43 30 c53 38 75 46 82 31 2 -7 5 -3 5 9
1 11 11 29 24 40 29 25 95 21 115 -7 7 -10 19 -19 27 -19 7 0 18 -12 23 -27 7
-20 11 79 11 335 l1 362 -570 0 -570 0 -1 -37 c-5 -118 6 -218 28 -270 12 -31
33 -45 33 -23 0 6 9 10 20 10 11 0 20 -6 20 -14 0 -8 5 -16 12 -18 8 -3 3 -20
-16 -52 -33 -56 -42 -104 -21 -113 18 -6 20 -33 3 -33 -6 0 -3 -9 7 -20 21
-23 24 -35 29 -95 2 -22 6 -47 10 -56 4 -9 6 -20 5 -25 -1 -5 1 -21 5 -37 5
-17 4 -33 -4 -42 -7 -8 -9 -15 -4 -15 12 0 15 -70 3 -91 -5 -10 -5 -20 -1 -23
13 -8 8 -42 -9 -62 -12 -16 -12 -17 3 -12 12 5 16 1 14 -16 -2 -13 -6 -28 -10
-34 -4 -7 -1 -12 8 -12 8 0 13 -8 12 -17 -2 -10 4 -23 12 -29 10 -7 15 -31 16
-77 l1 -67 367 0 c279 0 369 -3 374 -12 15 -23 16 -88 2 -88 -10 0 -10 -2 1
-9 8 -5 13 -28 13 -62 0 -31 7 -63 16 -77 10 -16 12 -26 5 -30 -12 -8 -10
-248 1 -260 4 -3 18 7 31 23 21 26 24 27 25 10 0 -38 -22 -98 -45 -121 -13
-13 -20 -24 -15 -24 6 0 10 -7 10 -16 0 -13 -3 -14 -14 -5 -11 9 -15 9 -20 -1
-3 -7 -4 -1 -1 15 4 20 1 27 -10 27 -9 0 -13 -4 -10 -10 3 -5 -3 -10 -15 -10
-12 0 -19 -3 -17 -7 11 -17 -61 -6 -96 15 -21 12 -41 22 -44 22 -3 0 -28 16
-54 35 -69 50 -108 48 -49 -2 32 -26 40 -49 15 -39 -8 3 -15 2 -15 -2 0 -5 -6
-17 -14 -27 -12 -17 -16 -17 -30 -6 -13 11 -22 11 -41 3 -27 -13 -116 -2 -139
17 -8 6 -17 23 -20 36 -4 14 -10 25 -15 25 -5 0 -7 -10 -4 -22 3 -13 3 -20 -2
-16 -4 4 -14 0 -23 -9 -14 -14 -16 -14 -22 3 -12 34 53 101 70 74 7 -12 20 70
20 127 0 47 28 111 52 119 14 4 29 -3 52 -25 18 -17 36 -31 42 -31 27 0 63
-26 58 -41 -7 -23 43 -39 122 -39 57 0 64 2 64 19 0 20 10 25 71 35 42 7 65
29 53 48 -5 7 -7 21 -6 31 2 9 -2 17 -9 17 -7 0 -4 7 7 15 19 14 19 14 -1 15
-16 0 -17 2 -6 9 12 8 12 12 2 25 -8 9 -20 16 -28 16 -7 0 -26 9 -41 20 -26
19 -36 20 -145 13 -64 -5 -117 -5 -117 -1 0 14 -47 9 -59 -6 -15 -18 -86 -10
-121 14 -42 29 -90 42 -96 26 -5 -14 -67 -13 -104 1 -8 3 -33 7 -55 8 -55 3
-53 2 -47 30 2 14 7 23 11 21 4 -3 11 15 17 38 6 29 6 43 -1 43 -5 0 -67 1
-137 1 l-128 2 0 122 c0 117 -1 120 -18 105 -21 -20 -42 -22 -42 -6 0 8 -5 8
-15 -1 -13 -10 -17 -7 -30 23 -8 20 -15 39 -15 43 0 3 -13 25 -28 48 -15 22
-34 56 -41 74 -13 30 -12 34 13 57 14 13 26 26 26 29 0 3 -10 22 -22 43 -26
45 -64 83 -83 83 -7 0 -22 17 -32 38 -14 28 -23 36 -40 35 -13 -2 -23 2 -23 7
0 6 6 10 13 10 7 0 4 7 -7 15 -11 8 -17 18 -13 21 4 4 2 13 -4 21 -9 10 -4 13
27 13 22 0 55 6 75 13 38 13 89 54 89 72 0 10 -57 39 -72 36 -5 0 -8 4 -8 9 0
17 48 30 110 30 44 0 59 4 64 16 4 9 5 17 4 18 -2 1 -16 10 -33 22 -16 11 -42
24 -57 27 -34 9 -27 45 11 53 57 11 100 25 106 33 8 14 -19 58 -33 53 -7 -2
-20 4 -28 14 -14 17 -15 17 -10 2 3 -11 0 -18 -7 -18 -7 0 -13 11 -13 25 -2
20 4 26 33 31 23 4 37 14 43 30 6 14 19 24 37 27 15 2 -549 5 -1254 6 l-1283
1 0 -57 0 -57 -51 57 -51 57 -983 0 -984 0 -4 -22 -4 -23 -8 23 c-7 22 -10 22
-169 21 -88 -1 -186 -5 -216 -11z m2111 -50 c10 -13 35 -41 55 -63 52 -59 77
-106 134 -255 62 -160 114 -377 100 -414 -5 -13 -6 -27 -2 -31 4 -4 0 -6 -8
-3 -8 2 -21 15 -27 29 -8 15 -13 18 -14 9 0 -8 -5 -2 -9 13 -5 16 -7 34 -4 41
3 7 -2 26 -11 42 -8 16 -15 37 -15 46 0 22 -51 34 -185 44 -59 5 -103 19 -117
39 -4 5 -5 -8 -1 -29 7 -44 16 -42 -86 -16 -35 9 -47 8 -60 -4 -9 -7 -25 -16
-36 -18 -11 -2 -29 -18 -40 -35 -11 -18 -25 -32 -32 -33 -17 0 -83 -67 -83
-84 0 -24 34 -43 88 -50 29 -4 65 -11 79 -17 25 -9 26 -10 7 -24 -88 -68 -224
-131 -224 -104 0 5 -6 9 -14 9 -23 0 -25 10 -16 88 8 71 4 112 -9 112 -3 0
-22 -15 -41 -32 -27 -25 -35 -41 -40 -80 -4 -27 -3 -51 1 -54 5 -3 17 -24 28
-47 10 -23 31 -55 45 -71 14 -16 28 -37 32 -48 3 -11 13 -18 22 -16 17 4 18
11 8 60 l-6 26 67 -1 c44 0 94 7 141 21 40 12 77 20 83 17 5 -4 13 5 19 19 12
31 15 32 43 5 22 -20 22 -21 3 -35 -24 -17 -36 -18 -36 -1 0 6 -5 4 -11 -6 -6
-9 -14 -15 -20 -12 -5 4 -9 1 -9 -4 0 -6 -10 -11 -23 -11 -27 0 -82 -53 -74
-72 2 -7 21 -22 42 -32 36 -20 37 -20 103 -1 37 10 96 19 130 19 55 1 66 4 84
25 16 21 22 23 36 13 9 -7 29 -18 44 -24 34 -15 43 -69 16 -103 -16 -20 -23
-22 -49 -15 -21 6 -39 5 -53 -2 -11 -7 -24 -11 -28 -10 -5 1 -8 -2 -8 -7 0
-15 -31 -24 -106 -30 l-72 -6 44 -75 c24 -41 44 -78 44 -81 0 -4 -18 -5 -39
-2 -27 4 -49 0 -71 -13 -25 -15 -34 -16 -37 -6 -6 16 -44 -23 -65 -65 -16 -33
-13 -53 8 -53 17 0 92 37 114 56 9 7 37 18 64 24 40 9 52 8 66 -5 9 -8 21 -15
26 -15 5 0 10 -14 11 -32 3 -33 44 -120 59 -125 6 -2 19 3 29 11 20 15 19 15
-2 10 -19 -5 -23 0 -33 38 -13 53 -25 74 -39 71 -14 -4 -14 3 0 28 5 11 14 17
20 14 5 -4 9 4 9 16 0 12 8 31 17 41 15 16 15 22 4 40 -11 17 -10 22 1 29 11
7 11 9 -1 9 -9 0 -12 9 -9 29 2 17 2 29 -1 28 -7 -2 -11 7 -11 23 0 6 58 10
155 10 l155 0 0 -81 c0 -78 1 -82 31 -110 17 -16 34 -28 37 -28 29 4 32 -4 32
-86 0 -47 -3 -85 -6 -85 -3 0 -25 14 -50 31 -29 20 -51 28 -64 24 -18 -6 -19
-2 -15 47 5 59 -2 101 -16 92 -5 -3 -9 1 -9 8 0 7 -3 23 -6 36 -5 17 -3 21 9
17 26 -11 27 23 0 40 -24 16 -25 16 -18 -4 3 -11 1 -29 -4 -40 -8 -14 -5 -47
9 -122 16 -85 30 -192 32 -254 1 -36 -15 -141 -23 -143 -5 -2 -9 -11 -9 -20 1
-14 4 -13 19 5 l19 23 6 -24 c3 -13 3 -45 0 -70 -6 -40 -5 -46 10 -40 14 5 16
-6 16 -99 0 -60 -4 -109 -10 -112 -6 -4 -10 9 -10 32 l0 38 -21 -36 c-28 -47
-117 -88 -154 -71 l-24 11 -3 -127 -3 -127 -62 -3 -63 -3 0 31 c0 24 -4 30
-21 30 -18 0 -19 2 -9 15 7 8 8 15 3 15 -21 0 -73 -22 -73 -31 0 -5 -4 -9 -10
-9 -5 0 -10 7 -10 15 0 11 -7 14 -24 9 -16 -4 -25 -1 -29 10 -6 15 10 32 116
130 38 35 47 49 42 65 -3 12 -2 21 3 21 4 0 19 23 32 51 l23 51 17 -37 18 -38
13 24 c8 15 13 59 13 114 1 80 -2 94 -23 123 -14 17 -31 32 -38 32 -7 0 -13 4
-13 8 0 4 -11 9 -25 10 -29 2 -29 0 -13 -44 9 -27 9 -37 -6 -58 -18 -28 -15
-32 14 -16 15 8 21 6 29 -8 12 -23 4 -35 -39 -57 -19 -10 -64 -38 -98 -62 -63
-44 -100 -53 -48 -12 28 22 51 57 42 66 -2 3 -20 -7 -39 -21 -43 -33 -54 -23
-22 20 26 35 34 76 13 73 -20 -3 -48 12 -48 26 0 7 -6 15 -12 18 -10 3 -9 12
5 37 22 41 22 57 -3 70 -11 6 -20 16 -20 23 0 7 -10 17 -22 22 -13 6 -24 20
-26 32 -2 14 -30 38 -83 73 -69 45 -82 50 -96 38 -12 -9 -15 -9 -9 0 5 8 1 12
-12 12 -14 0 -21 9 -26 33 -5 22 -9 28 -15 19 -7 -11 -9 -11 -14 2 -4 9 -16
16 -27 16 -11 0 -20 7 -20 15 0 8 4 15 9 15 5 0 12 7 15 16 3 8 2 12 -4 9 -6
-3 -10 -2 -10 4 0 5 4 11 10 13 5 2 11 19 13 38 2 19 9 45 15 57 7 12 12 29
12 38 0 8 7 18 15 21 8 4 15 12 15 20 0 8 6 11 15 8 9 -4 14 -13 13 -22 -2
-12 9 -19 45 -25 29 -6 47 -14 47 -23 0 -8 4 -14 10 -14 5 0 6 8 3 18 -6 15
-5 15 10 4 15 -13 42 -8 33 6 -2 4 0 16 5 27 7 18 8 17 8 -7 1 -26 39 -74 50
-62 3 3 -2 10 -11 15 -13 7 -14 16 -7 46 4 21 13 39 18 41 6 2 11 14 11 27 0
12 7 25 15 29 8 3 15 10 15 16 0 6 -32 10 -81 10 -94 0 -119 10 -119 48 0 15
-5 34 -11 42 -8 12 -10 10 -5 -10 l5 -24 -23 27 c-23 27 -46 36 -46 17 0 -5
-3 -9 -7 -9 -16 3 -74 -14 -79 -22 -3 -5 -10 -7 -15 -4 -5 4 -9 1 -9 -6 0 -7
-5 -8 -12 -3 -17 12 -53 11 -52 -1 1 -6 5 -20 9 -32 13 -45 -14 -22 -30 25
-33 94 -34 95 -50 82 -22 -18 -48 -4 -105 56 -52 55 -60 75 -21 54 26 -14 26
-4 1 38 -22 36 -27 102 -7 102 34 1 39 17 17 60 -12 23 -19 48 -16 55 3 8 -6
49 -19 92 -13 43 -26 92 -28 108 -2 17 -5 -56 -6 -161 -1 -180 -2 -191 -23
-213 -19 -22 -22 -22 -33 -7 -16 21 -25 20 -25 -3 0 -23 -12 -52 -44 -106 -30
-51 -61 -53 -98 -7 -15 18 -32 48 -38 67 -6 18 -17 36 -25 39 -8 3 -15 14 -15
24 0 10 -5 23 -11 29 -15 15 -3 33 22 33 21 0 21 17 -1 65 -5 11 -14 32 -19
46 -5 15 -23 33 -40 40 -16 7 -35 24 -42 36 -7 13 -18 23 -26 23 -7 0 -13 6
-13 14 0 7 -7 20 -16 27 -14 12 -14 14 3 20 16 6 15 8 -9 19 -33 15 -58 1 -58
-34 0 -12 -7 -31 -14 -42 -13 -18 -13 -28 0 -77 21 -82 13 -92 -82 -100 -82
-7 -261 9 -281 25 -28 23 -14 64 47 139 33 41 60 83 60 96 0 12 5 25 10 28 6
3 10 18 10 33 0 32 40 122 63 141 16 13 48 9 46 -6 -1 -4 -1 -24 0 -44 1 -49
32 -80 114 -114 59 -24 77 -27 131 -22 51 5 69 11 94 35 18 17 32 33 32 36 0
3 -18 15 -41 26 -39 20 -44 32 -16 36 7 1 39 4 72 8 32 3 63 10 69 16 12 12
-28 45 -72 61 -49 16 -38 40 26 54 30 7 58 17 64 23 19 19 -1 50 -37 56 -46 9
-50 44 -5 53 17 3 30 12 30 19 0 17 50 31 59 17 3 -6 15 -12 26 -14 35 -7 91
-111 104 -194 l6 -40 14 55 c37 146 62 167 189 157 42 -3 98 -2 125 2 34 6 52
4 65 -5 9 -7 29 -14 43 -14 33 0 99 27 99 40 0 6 9 10 20 10 13 0 20 -7 20
-20 0 -11 5 -20 10 -20 12 0 14 -27 3 -32 -5 -1 -20 -19 -34 -38 -25 -33 -26
-38 -13 -63 8 -15 19 -27 24 -27 5 0 22 -14 38 -31 15 -16 46 -35 68 -40 68
-18 148 -28 174 -23 67 15 90 26 90 45 0 12 15 26 40 39 22 11 40 25 40 31 0
15 -20 51 -42 75 -17 19 -18 25 -7 42 11 18 10 23 -8 39 -11 10 -46 27 -77 37
-50 17 -64 18 -102 8 -24 -7 -58 -12 -74 -12 -27 0 -30 2 -20 20 12 22 79 44
125 41 17 -1 39 5 50 13 27 21 33 20 56 -6z m2595 6 c-3 -9 -6 -18 -6 -20 0
-7 -56 -4 -64 3 -4 4 8 13 26 19 45 17 51 17 44 -2z m-1429 -47 c29 -31 16
-57 -20 -38 -18 9 -23 19 -19 37 5 30 11 30 39 1z m613 4 c0 -6 -4 -13 -10
-16 -5 -3 -10 1 -10 9 0 9 5 16 10 16 6 0 10 -4 10 -9z m1390 -31 c0 -5 -5
-10 -11 -10 -5 0 -7 5 -4 10 3 6 8 10 11 10 2 0 4 -4 4 -10z m-13 -35 c-4 -8
-2 -17 3 -20 6 -4 10 -1 10 4 0 6 6 11 14 11 30 0 23 -16 -15 -37 l-40 -22 5
29 c4 30 13 50 23 50 3 0 3 -7 0 -15z m-4504 -2 c-7 -2 -19 -2 -25 0 -7 3 -2
5 12 5 14 0 19 -2 13 -5z m2152 -10 c35 -8 109 -46 129 -66 10 -11 27 -17 37
-14 11 3 19 0 19 -5 0 -17 -40 -47 -55 -42 -7 3 -22 1 -32 -4 -11 -6 -60 -6
-123 -2 -108 8 -124 5 -175 -35 -30 -23 -4 -35 73 -34 66 2 92 -8 53 -18 -37
-10 -104 -48 -109 -62 -3 -10 8 -11 52 -6 31 4 72 4 92 0 l36 -6 -23 -25 -22
-24 24 0 c30 1 59 22 59 44 0 9 6 16 14 16 7 0 33 25 57 55 47 59 62 65 95 37
41 -33 57 -81 64 -198 4 -61 10 -116 14 -122 8 -13 -28 -52 -48 -52 -8 0 -16
-7 -19 -14 -4 -11 -16 -13 -41 -9 -43 7 -50 -12 -10 -27 15 -6 39 -19 54 -30
16 -11 40 -20 54 -20 30 0 46 -27 25 -41 -8 -5 -30 -9 -50 -9 -20 0 -54 -7
-75 -16 -22 -9 -66 -17 -99 -18 -54 -1 -60 -3 -57 -21 4 -23 22 -45 22 -27 0
16 41 15 87 -2 50 -19 131 -28 138 -16 10 15 45 12 45 -4 0 -21 -14 -27 -78
-32 -31 -3 -58 -7 -60 -9 -2 -1 13 -13 33 -25 23 -14 54 -23 83 -24 40 -1 47
-4 50 -22 2 -13 -6 -29 -20 -40 -39 -31 -69 -76 -63 -94 7 -20 -17 -42 -42
-40 -10 1 -44 2 -75 1 -48 -1 -59 -5 -69 -23 -9 -16 -9 -23 0 -26 6 -2 11 -21
11 -43 0 -28 4 -39 15 -39 8 0 15 9 15 20 0 40 39 51 161 47 106 -3 113 -5
121 -27 7 -19 13 -21 40 -16 29 6 30 5 14 -7 -18 -13 -16 -14 22 -20 41 -7 85
-38 63 -45 -19 -6 -1 -22 25 -22 13 0 24 -4 24 -10 0 -5 -9 -10 -21 -10 -12 0
-23 -8 -26 -20 -4 -15 -14 -20 -40 -20 -18 0 -51 -9 -71 -19 -20 -10 -57 -24
-82 -30 -78 -20 -120 -43 -126 -68 -9 -36 0 -171 12 -183 8 -8 20 -3 43 20 20
20 37 29 48 26 23 -7 40 4 44 28 2 10 12 24 21 30 14 9 21 6 34 -12 22 -32 60
-45 86 -31 17 9 23 8 30 -5 10 -17 43 -22 52 -7 3 4 18 11 33 14 16 3 43 20
61 36 45 42 102 51 131 22 15 -15 20 -28 15 -46 -4 -17 -2 -25 6 -25 9 0 9 -4
-1 -16 -15 -18 -15 -20 -17 -76 -2 -26 -7 -38 -17 -38 -17 0 -45 -60 -45 -96
0 -13 -4 -24 -10 -24 -14 0 -12 -68 2 -72 19 -7 1 -38 -22 -38 -16 0 -20 -6
-20 -34 0 -19 -5 -36 -11 -38 -8 -3 -8 -10 2 -25 11 -19 11 -25 -4 -41 -10
-11 -15 -25 -13 -33 3 -8 -5 -27 -18 -43 -21 -25 -32 -29 -94 -34 -72 -5 -100
7 -63 28 27 14 18 34 -24 50 -21 8 -35 21 -35 31 0 9 -10 20 -22 23 -13 3 -34
15 -47 26 l-24 21 19 54 c18 55 18 55 -4 100 -25 52 -41 62 -74 44 -17 -9 -19
-13 -8 -17 29 -9 50 -35 50 -63 0 -24 -5 -29 -34 -35 -19 -3 -41 -4 -48 -1 -7
2 -39 -9 -71 -26 l-58 -30 20 -21 c10 -11 21 -31 23 -44 4 -28 22 -30 26 -3 5
30 28 32 67 5 20 -13 40 -24 45 -24 6 0 10 -9 10 -20 0 -20 -5 -21 -148 -20
-46 0 -63 -3 -60 -12 5 -13 102 -37 156 -38 60 0 29 -28 -57 -50 -69 -18 -36
-30 89 -33 83 -1 114 1 117 11 6 17 33 15 33 -2 0 -8 -6 -17 -12 -19 -25 -10
16 -28 50 -22 32 6 32 6 32 -35 l0 -40 89 0 c87 0 89 0 99 -27 6 -16 14 -59
18 -96 5 -53 17 -89 50 -155 25 -48 47 -104 51 -125 3 -21 12 -41 19 -44 8 -3
14 -15 14 -27 0 -28 8 -38 48 -58 32 -17 32 -17 32 7 0 13 -5 27 -10 30 -6 4
-8 11 -4 16 3 6 7 43 9 82 1 40 6 107 10 150 7 73 9 79 37 93 23 12 28 20 22
36 -5 17 -3 20 11 15 9 -4 27 -7 41 -7 20 0 22 -3 15 -22 -4 -13 -6 -29 -4
-35 6 -16 40 -17 45 -1 3 8 18 5 52 -10 66 -31 107 -39 116 -21 6 10 27 14 69
14 34 0 61 4 61 9 0 5 8 2 17 -5 9 -8 14 -9 10 -3 -7 13 22 24 62 24 21 0 22
2 10 18 -12 16 -12 16 5 1 16 -15 23 -15 64 -3 25 8 55 20 67 28 18 12 25 12
48 0 15 -8 27 -17 27 -20 0 -3 -4 -2 -10 1 -5 3 -10 -3 -10 -14 0 -12 -7 -21
-15 -21 -10 0 -15 -10 -15 -29 0 -21 -6 -32 -20 -36 -21 -7 -22 -10 -24 -60
-2 -40 25 -69 58 -63 14 3 27 0 29 -6 3 -6 15 -13 28 -14 13 -1 33 -3 44 -5
15 -1 21 5 23 27 4 28 4 29 53 23 27 -3 56 -13 65 -22 8 -8 23 -15 32 -15 26
0 52 -71 52 -140 l0 -60 56 0 c40 0 54 -3 51 -12 -2 -8 -18 -12 -43 -10 -30 3
-36 1 -27 -8 12 -13 6 -40 -11 -52 -6 -4 1 -11 16 -17 33 -12 42 -27 23 -35
-8 -3 -12 -11 -10 -18 3 -8 -1 -22 -8 -32 -13 -18 -14 -18 -35 0 -22 18 -31
79 -14 86 5 2 4 19 -1 38 l-10 35 -14 -35 c-9 -19 -17 -50 -18 -68 -3 -30
-158 -349 -225 -463 -21 -35 -26 -51 -17 -54 101 -38 172 -58 220 -64 32 -3
56 -8 55 -11 -1 -3 5 -16 14 -29 9 -13 14 -29 11 -36 -2 -8 1 -24 8 -37 8 -15
14 -79 16 -183 3 -195 6 -234 21 -262 7 -12 12 -31 12 -42 0 -12 5 -21 10 -21
6 0 10 -9 10 -21 0 -15 5 -19 15 -15 12 4 15 -6 15 -62 0 -75 -12 -90 -80
-101 -28 -5 -36 -11 -38 -31 -2 -14 -10 -48 -18 -76 -12 -40 -13 -56 -5 -73
10 -18 9 -21 -9 -21 -13 0 -25 -12 -35 -37 -8 -20 -13 -38 -11 -40 2 -2 41 -6
87 -8 46 -2 90 -4 97 -4 6 -1 12 -5 12 -9 0 -5 -44 -7 -97 -6 -64 1 -101 -2
-105 -10 -4 -6 -8 -27 -8 -47 0 -20 -3 -51 -6 -68 l-6 -31 -234 0 c-129 0
-234 2 -234 5 0 3 9 14 20 25 12 12 19 24 16 28 -4 7 -53 13 -128 16 -31 1
-79 42 -71 62 3 8 -2 17 -11 20 -9 3 -16 10 -16 14 0 5 19 -1 43 -13 57 -28
195 -31 221 -4 10 9 21 17 25 17 4 0 13 11 18 23 9 19 8 24 -3 25 -8 1 -21 3
-29 4 -8 1 -15 8 -15 17 0 13 -2 14 -9 2 -5 -8 -16 -11 -24 -8 -11 4 -14 1
-11 -7 3 -7 -1 -13 -8 -14 -7 0 -24 -3 -38 -6 -14 -3 -34 1 -50 11 -14 9 -27
16 -29 14 -2 -1 -7 3 -11 10 -14 22 12 37 45 27 62 -19 75 -19 97 2 12 11 26
20 30 20 5 0 7 4 4 8 -7 12 55 51 93 58 l34 7 -5 -36 c-5 -42 6 -47 32 -14 15
18 21 20 31 10 19 -19 28 -16 22 8 -3 12 -1 24 6 28 21 13 1 41 -30 41 -17 0
-59 14 -94 30 -35 17 -73 30 -84 30 -51 0 -67 28 -30 54 l21 14 -21 11 c-15 8
-27 9 -40 1 -13 -7 -22 -7 -26 0 -4 6 -23 7 -44 4 -30 -5 -39 -2 -44 10 -10
26 14 68 35 63 20 -6 24 13 6 31 -19 19 -54 14 -71 -10 -18 -27 -32 -18 -24
15 4 13 21 30 42 40 19 9 36 23 36 32 2 24 25 99 37 120 3 5 5 28 3 52 -1 24
1 43 6 43 5 0 9 22 9 50 -1 37 -6 53 -21 64 -12 8 -22 10 -26 5 -3 -6 -11 -3
-19 6 -10 12 -16 13 -27 3 -11 -9 -16 -9 -24 3 -7 12 -13 7 -11 -12 1 -8 -30
-5 -45 4 -14 9 -75 1 -122 -15 -20 -7 -38 -12 -41 -13 -3 0 -15 -10 -27 -23
-13 -12 -28 -22 -33 -22 -6 0 -19 -15 -30 -33 -11 -17 -20 -26 -20 -19 0 7 -4
11 -8 8 -4 -2 -9 8 -10 23 -1 18 7 38 23 55 14 15 25 23 25 19 0 -4 14 8 31
27 19 21 42 36 57 37 50 5 97 4 163 -3 45 -4 69 -3 73 5 4 6 2 11 -3 11 -13 0
-10 22 4 32 6 5 5 8 -2 9 -24 3 -28 4 -49 19 -11 8 -24 27 -28 43 -6 26 -5 27
14 15 18 -11 23 -10 36 6 13 18 14 19 14 2 0 -13 5 -17 20 -13 10 3 19 2 18
-2 -2 -19 3 -24 12 -11 6 10 10 11 10 3 0 -24 18 -13 29 17 5 17 15 30 21 30
6 0 8 -5 5 -10 -4 -6 5 -5 20 2 21 9 31 9 48 -2 20 -12 21 -12 8 3 -7 10 -23
17 -35 17 -11 0 -49 13 -82 29 -45 21 -65 26 -73 18 -8 -8 -11 -7 -11 5 0 9
-4 19 -8 22 -5 3 -8 -5 -8 -17 1 -15 -6 -23 -21 -25 -15 -2 -23 2 -23 11 0 7
-11 19 -25 25 -14 6 -24 8 -23 4 4 -19 -17 -42 -38 -42 -13 0 -24 -5 -24 -11
0 -6 9 -8 21 -4 15 5 19 4 15 -4 -4 -6 -39 -11 -85 -11 -61 0 -82 4 -92 17 -8
9 -13 18 -12 19 4 7 -10 39 -29 63 -29 38 -39 90 -26 133 6 21 16 38 22 38 11
0 43 68 51 108 2 12 7 26 10 32 3 5 -1 32 -9 59 -8 27 -17 74 -21 104 -6 49
-11 57 -36 68 -16 6 -41 25 -54 41 l-25 30 0 -199 c0 -137 3 -193 10 -183 8
11 9 7 3 -15 -3 -16 -6 -38 -5 -47 0 -12 -6 -18 -19 -18 -11 0 -19 7 -19 17 0
15 -1 15 -18 0 -10 -10 -28 -17 -40 -17 -13 0 -22 -6 -22 -15 0 -11 -12 -15
-49 -15 -52 0 -70 -12 -52 -34 17 -20 3 -46 -47 -93 l-45 -42 -131 4 c-140 4
-203 12 -212 26 -3 5 -18 9 -34 9 -16 0 -32 5 -35 10 -4 6 -10 8 -15 5 -16
-10 -28 21 -26 67 3 61 45 128 66 103 11 -13 10 -14 -4 -9 -28 11 -19 -30 13
-53 32 -25 155 -45 198 -34 38 10 53 38 29 56 -10 7 -15 18 -11 24 4 7 -16 11
-62 11 -37 0 -75 5 -83 10 -8 5 -13 10 -10 10 3 0 37 3 75 7 39 3 99 6 134 7
l65 1 20 -42 c15 -31 27 -43 43 -43 12 0 25 5 28 10 4 7 13 7 26 0 15 -8 21
-7 25 4 3 8 1 21 -5 28 -5 7 -25 31 -43 53 -19 22 -41 52 -51 67 -24 39 -50
43 -91 15 -28 -18 -33 -26 -23 -36 9 -9 -23 -10 -143 -6 -85 4 -159 10 -164
15 -29 28 59 32 111 5 18 -10 34 -9 75 2 29 8 58 15 65 17 20 4 28 16 10 16
-24 0 -21 15 9 47 l26 28 -42 7 c-23 4 -63 6 -89 4 -47 -4 -156 13 -178 27 -7
5 -13 19 -13 33 0 31 -20 31 -50 -1 -13 -14 -29 -25 -35 -25 -7 0 -20 -9 -30
-20 -11 -12 -31 -20 -52 -20 -26 0 -33 -4 -33 -20 0 -11 -4 -20 -10 -20 -5 0
-10 9 -10 21 0 41 -25 12 -26 -30 -1 -23 -4 -44 -6 -47 -6 -5 -53 114 -62 156
-3 15 -17 30 -34 38 -22 9 -33 24 -42 56 -7 24 -9 53 -6 64 4 11 2 23 -4 27
-12 8 -14 45 -1 45 5 0 12 -11 15 -25 4 -14 13 -25 22 -25 12 0 14 13 9 88 -6
88 3 149 23 145 13 -3 26 33 17 46 -3 6 1 13 8 18 25 14 47 70 48 123 2 45 5
51 21 47 13 -4 22 1 27 16 17 44 65 67 135 67 l65 0 -24 47 c-13 26 -21 51
-18 56 6 10 -31 47 -49 47 -24 1 -76 54 -130 135 -137 202 -140 215 -142 635
-1 240 2 320 12 338 12 21 11 22 -23 22 l-35 0 5 58 c3 31 10 98 15 147 5 50
12 132 15 183 3 52 9 101 14 110 7 12 0 26 -25 56 -20 24 -41 64 -50 96 -8 30
-24 78 -35 105 -21 54 -40 155 -32 168 3 5 14 1 24 -9 14 -12 16 -21 9 -30 -6
-6 -8 -24 -4 -39 4 -18 9 -23 14 -15 12 19 30 2 51 -48 32 -75 40 -38 18 88
-10 63 -21 121 -24 127 -2 7 7 24 20 39 13 14 25 35 27 45 3 18 7 16 42 -15
21 -20 46 -36 55 -36 27 0 42 15 35 34 -6 16 -4 16 13 6 29 -18 72 -5 83 26 8
19 15 24 28 19 9 -4 26 -9 37 -12z m702 -5 c-3 -8 -6 -5 -6 6 -1 11 2 17 5 13
3 -3 4 -12 1 -19z m-2921 -13 c-8 -8 -19 -15 -25 -15 -6 0 -11 7 -11 15 0 9
10 15 26 15 23 0 24 -2 10 -15z m-706 -15 c0 -5 -5 -10 -11 -10 -5 0 -7 5 -4
10 3 6 8 10 11 10 2 0 4 -4 4 -10z m3829 -52 c7 -20 23 -44 37 -53 14 -9 60
-52 103 -96 50 -51 85 -79 99 -79 13 0 22 -6 22 -15 0 -9 9 -15 24 -15 20 0
23 -5 22 -29 -1 -16 -5 -33 -9 -37 -4 -4 -7 -18 -7 -31 0 -33 -72 -64 -159
-68 -84 -5 -101 -22 -101 -106 0 -50 -3 -59 -18 -59 -10 0 -25 -9 -35 -20 -9
-11 -24 -20 -33 -20 -13 0 -15 -16 -12 -112 2 -62 7 -122 12 -132 7 -14 6 -17
-2 -12 -9 5 -12 -12 -12 -63 l0 -71 -85 0 c-47 0 -85 2 -85 5 0 2 14 26 30 52
53 84 65 171 30 216 -11 14 -22 40 -24 59 -6 46 -7 46 -16 18 -7 -23 -8 -22
-9 11 -1 20 2 39 6 43 4 3 8 13 9 20 1 8 9 46 18 84 9 39 15 97 15 129 -2 53
-2 55 -8 18 -3 -23 -9 -35 -13 -29 -4 7 -2 54 6 105 8 52 12 123 10 159 -2 36
-1 58 3 50 3 -8 12 -22 20 -32 11 -13 12 -27 5 -70 -10 -58 -5 -138 9 -138 5
0 23 13 41 29 l33 29 3 134 c3 119 6 135 25 156 24 25 30 22 46 -30z m645 -44
c3 -9 6 -25 6 -37 0 -11 12 -38 26 -59 20 -29 34 -38 55 -38 15 0 32 -6 36
-13 4 -7 21 -21 36 -30 23 -15 26 -21 17 -32 -7 -8 -9 -19 -6 -24 4 -5 2 -12
-4 -16 -6 -4 -8 -10 -6 -14 3 -4 -6 -18 -19 -29 l-25 -22 20 -37 c43 -80 19
-125 -68 -130 -31 -2 -64 -3 -72 -4 -35 -3 -226 24 -237 33 -7 6 -13 26 -13
44 0 27 12 48 60 103 33 39 60 75 60 82 0 11 21 81 47 154 23 64 73 104 87 69z
m1210 -109 c-6 -16 -24 -21 -24 -7 0 11 11 22 21 22 5 0 6 -7 3 -15z m293 -25
c-2 -25 -13 -26 -27 -1 -7 14 -6 21 3 24 18 6 26 -1 24 -23z m-577 0 c0 -13
-5 -18 -15 -14 -16 7 -19 17 -8 27 12 13 23 7 23 -13z m-1970 -61 c0 -26 3
-30 20 -26 45 12 48 -49 2 -71 -35 -16 -42 -15 -42 8 0 11 -9 25 -20 32 -11 7
-20 20 -20 28 0 8 -13 21 -30 28 -46 21 -36 32 30 32 l60 0 0 -31z m-975 -307
c16 -113 29 -370 19 -359 -4 4 -11 80 -15 169 -5 115 -13 185 -28 238 -24 88
-26 116 -5 77 8 -16 21 -72 29 -125z m3079 99 c-3 -16 -1 -39 6 -51 10 -18 9
-24 -1 -31 -15 -9 -13 -10 34 -13 13 -1 27 7 33 18 8 13 24 20 45 22 19 0 34
2 34 3 0 1 15 4 32 5 18 2 31 0 28 -3 -2 -4 16 -17 40 -29 42 -20 44 -23 34
-46 -15 -33 -28 -36 -80 -25 -24 6 -58 9 -76 7 -17 -1 -35 1 -39 5 -12 11 -21
8 -21 -8 0 -8 4 -12 8 -10 4 3 9 -2 13 -10 3 -8 0 -16 -7 -16 -33 -4 -46 0
-76 22 -28 20 -34 22 -53 10 -19 -12 -23 -11 -35 5 -7 10 -13 27 -13 37 0 23
37 87 51 87 5 0 9 6 9 13 0 14 19 37 32 37 4 0 5 -13 2 -29z m-3196 -87 c-3
-14 -5 -12 -10 9 -3 19 -2 25 4 19 6 -6 8 -18 6 -28z m-48 -8 c0 -39 -12 -86
-22 -86 -9 0 -10 96 -1 113 8 14 23 -4 23 -27z m1297 -148 c-3 -8 -6 -5 -6 6
-1 11 2 17 5 13 3 -3 4 -12 1 -19z m1123 -52 c0 -8 -3 -16 -7 -19 -5 -2 -2 -2
5 -1 6 2 12 -1 12 -6 0 -6 5 -10 11 -10 6 0 25 -11 41 -26 20 -16 40 -24 57
-22 24 3 26 0 27 -32 0 -34 -39 -100 -60 -100 -5 0 -26 16 -47 35 -22 19 -46
35 -54 35 -8 0 -13 6 -11 13 18 57 17 67 -9 67 -15 0 -37 8 -50 18 l-23 17 36
22 c42 26 72 30 72 9z m-717 -66 c8 -8 25 -36 37 -62 12 -27 26 -48 31 -48 11
0 59 -71 59 -87 0 -21 -176 -18 -184 2 -4 10 3 19 18 25 14 5 27 18 31 29 9
29 -9 131 -23 131 -7 0 -35 -58 -54 -112 -10 -28 -31 -35 -57 -19 -11 7 -12
15 -3 38 6 15 13 40 16 54 13 60 80 112 103 81 7 -10 19 -24 26 -32z m-3231
-2 c2 -16 11 -24 28 -26 13 -2 30 -11 36 -20 9 -13 33 -18 94 -20 71 -4 79 -6
58 -16 -16 -9 -28 -9 -41 -2 -19 12 -36 -4 -37 -34 -1 -21 -46 -70 -64 -70 -9
0 -23 11 -32 25 -13 20 -22 24 -43 19 -25 -6 -25 -6 -6 9 19 15 19 15 0 51
-17 31 -28 41 -37 34 -7 -4 -48 24 -48 32 0 11 49 37 72 39 10 1 18 -8 20 -21z
m4162 -39 c-8 -14 -24 -10 -24 6 0 9 6 12 15 9 8 -4 12 -10 9 -15z m-2534 1
c0 -5 -5 -10 -11 -10 -5 0 -8 -4 -4 -9 3 -5 0 -13 -6 -16 -17 -11 -21 2 -7 24
14 22 28 28 28 11z m-45 -70 c3 -5 1 -10 -4 -10 -6 0 -11 5 -11 10 0 6 2 10 4
10 3 0 8 -4 11 -10z m2358 3 c-7 -2 -21 -2 -30 0 -10 3 -4 5 12 5 17 0 24 -2
18 -5z m-3138 -101 c-7 -8 -35 7 -35 18 0 6 7 6 20 -2 10 -7 17 -14 15 -16z
m1485 -43 c0 -6 -4 -7 -10 -4 -5 3 -10 11 -10 16 0 6 5 7 10 4 6 -3 10 -11 10
-16z m1319 -84 c19 -19 47 -37 63 -40 32 -7 148 23 145 37 -1 5 14 15 34 22
29 10 37 10 47 -1 7 -7 30 -13 51 -13 21 0 44 -6 51 -14 6 -8 34 -22 61 -31
36 -12 53 -24 60 -42 5 -13 13 -22 17 -19 12 7 11 -26 -2 -40 -7 -8 -24 -6
-60 8 -61 22 -92 22 -171 0 -48 -14 -61 -21 -63 -40 -3 -18 1 -22 26 -22 16 0
49 7 72 15 48 17 118 20 152 5 45 -19 61 -39 70 -92 15 -84 8 -257 -12 -303
-25 -59 -29 -71 -34 -105 -7 -42 -41 -108 -109 -210 -27 -41 -58 -95 -68 -119
-24 -54 -49 -86 -96 -122 -37 -27 -42 -28 -152 -29 -108 0 -116 1 -172 31 -32
18 -59 37 -59 44 0 6 -9 20 -20 30 -11 10 -20 26 -20 35 0 10 -7 23 -15 30 -8
7 -15 16 -15 20 0 5 -20 38 -44 74 -41 61 -62 119 -72 196 -3 19 -14 50 -24
68 -11 18 -23 45 -27 60 -6 27 -8 233 -1 286 5 42 38 68 104 82 49 10 69 10
117 -2 71 -18 102 -12 86 17 -11 22 -33 33 -96 49 -26 7 -43 17 -43 25 0 8 -6
15 -14 15 -7 0 -16 9 -19 21 -5 17 -2 20 14 16 10 -3 17 -2 14 3 -3 4 2 11 11
14 8 3 13 10 9 16 -9 15 86 59 130 59 32 0 47 -6 74 -34z m-275 -75 c20 -23
34 -45 31 -49 -3 -5 -29 -12 -58 -16 -28 -4 -58 -12 -64 -17 -7 -6 -20 -8 -28
-4 -19 7 -20 55 0 62 8 4 12 10 9 15 -3 5 -2 18 1 29 5 15 15 20 40 20 26 0
40 -9 69 -40z m-679 -160 c5 -8 11 -8 20 0 10 8 13 7 11 -4 -3 -24 -14 -30
-60 -31 -34 -2 -43 1 -42 13 4 25 59 41 71 22z m75 -10 c0 -5 -7 -10 -15 -10
-8 0 -15 5 -15 10 0 6 7 10 15 10 8 0 15 -4 15 -10z m1913 3 c-7 -2 -19 -2
-25 0 -7 3 -2 5 12 5 14 0 19 -2 13 -5z m530 -10 c-7 -2 -19 -2 -25 0 -7 3 -2
5 12 5 14 0 19 -2 13 -5z m-681 -45 c3 -9 39 -12 121 -13 108 0 140 -7 101
-22 -8 -3 -13 -12 -10 -19 3 -8 1 -14 -5 -14 -6 0 -8 -4 -5 -9 4 -5 -2 -29
-12 -53 -11 -23 -17 -49 -15 -56 3 -8 -3 -11 -19 -8 -12 2 -30 0 -38 -4 -8 -5
-38 -3 -67 2 -38 8 -59 19 -80 42 -58 66 -60 82 -18 139 21 28 41 35 47 15z
m-3702 -43 c0 -18 -23 -35 -47 -35 -12 0 -46 -9 -75 -20 -29 -11 -71 -20 -93
-20 l-40 1 30 25 c17 13 37 30 45 37 27 22 180 33 180 12z m3486 -292 c-2 -3
-20 -8 -40 -13 -35 -8 -36 -7 -42 27 -8 44 12 114 50 174 l31 47 3 -115 c1
-64 1 -118 -2 -120z m-1182 190 c29 -37 35 -55 24 -75 -6 -13 -5 -18 5 -18 8
0 17 -8 19 -18 8 -29 -3 -82 -16 -82 -19 0 -39 45 -31 69 4 14 1 23 -9 27 -9
3 -16 16 -16 28 0 11 -7 34 -15 50 -13 24 -13 31 -3 38 18 11 18 11 42 -19z
m-2354 -5 c0 -13 -23 -5 -28 10 -2 7 2 10 12 6 9 -3 16 -11 16 -16z m-43 -78
c-27 -21 -57 -27 -57 -10 0 12 36 28 64 29 16 1 15 -2 -7 -19z m4715 -52 c-9
-9 -12 -7 -12 12 0 19 3 21 12 12 9 -9 9 -15 0 -24z m28 -29 c0 -18 -2 -19
-15 -9 -15 12 -12 30 6 30 5 0 9 -10 9 -21z m-358 -26 c40 -36 15 -55 -62 -46
-43 5 -48 8 -38 21 11 12 62 40 77 42 3 0 13 -7 23 -17z m-4518 -8 c-4 -8 -11
-12 -16 -9 -6 4 -5 10 3 15 19 12 19 11 13 -6z m106 -22 c0 -9 48 -33 66 -33
7 0 14 3 17 8 2 4 2 2 1 -5 -2 -7 6 -22 17 -35 15 -17 19 -18 15 -5 -4 13 1
17 24 17 47 0 54 -27 20 -82 -16 -26 -37 -70 -46 -98 -22 -67 -9 -111 51 -178
25 -27 45 -55 45 -61 0 -22 -40 -10 -70 22 -47 48 -72 109 -71 177 0 52 -3 60
-27 76 -15 10 -34 17 -42 15 -8 -1 -12 0 -8 4 7 7 -32 50 -46 50 -5 0 -10 9
-12 20 -2 11 -8 21 -13 23 -6 2 -11 15 -11 28 0 15 -6 24 -15 24 -8 0 -15 7
-15 16 0 12 7 15 24 12 14 -3 31 -1 38 3 16 11 58 12 58 2z m4820 -8 c0 -8 -4
-15 -10 -15 -5 0 -10 7 -10 15 0 8 5 15 10 15 6 0 10 -7 10 -15z m-875 -75
c10 -11 16 -23 13 -26 -9 -8 -48 19 -48 33 0 19 14 16 35 -7z m-270 -51 c-25
-74 -16 -181 23 -282 l30 -77 -59 0 -59 0 0 172 0 172 37 38 c20 21 39 36 41
33 2 -2 -4 -27 -13 -56z m1015 31 c14 -11 21 -20 15 -20 -5 0 -21 9 -35 20
-14 11 -20 20 -15 20 6 0 21 -9 35 -20z m-253 -7 c4 -12 -25 -26 -38 -18 -11
7 12 35 25 31 6 -1 11 -7 13 -13z m-3783 -9 c13 -34 6 -61 -19 -72 -14 -6 -25
-18 -25 -26 0 -17 -108 -75 -127 -69 -7 2 -20 0 -31 -6 -13 -7 -22 -7 -30 1
-27 27 -3 65 32 52 8 -3 16 3 19 15 3 15 13 21 31 21 15 0 26 6 26 13 0 8 12
20 28 28 15 8 31 20 35 26 4 7 15 13 22 13 8 0 15 5 15 10 0 16 17 12 24 -6z
m4091 -14 c3 -6 -1 -7 -9 -4 -18 7 -21 14 -7 14 6 0 13 -4 16 -10z m-348 -15
c7 -20 -2 -29 -21 -22 -9 4 -13 13 -10 22 8 19 23 19 31 0z m433 -27 c0 -13
-23 -5 -28 10 -2 7 2 10 12 6 9 -3 16 -11 16 -16z m-480 -14 c0 -2 -9 0 -20 6
-11 6 -20 13 -20 16 0 2 9 0 20 -6 11 -6 20 -13 20 -16z m-67 -32 c13 -14 13
-20 2 -35 -13 -18 -15 -18 -67 0 -29 10 -56 22 -60 28 -19 26 102 33 125 7z
m-5108 -3 c10 -16 0 -21 -39 -21 -20 0 -34 -4 -31 -8 3 -4 -2 -11 -11 -14 -15
-6 -15 -8 2 -27 11 -12 53 -43 96 -71 87 -56 107 -75 87 -83 -8 -3 -27 -7 -44
-9 -16 -2 -43 -9 -60 -16 -20 -8 -56 -10 -108 -6 -72 5 -80 8 -118 43 -43 39
-81 107 -73 128 3 7 23 18 46 26 22 7 42 19 45 26 3 7 14 13 24 13 10 0 19 5
19 11 0 5 4 8 9 5 5 -4 20 -2 33 3 32 13 115 13 123 0z m5573 -9 c4 -2 -11 -6
-33 -9 -41 -7 -65 -3 -47 8 10 6 64 6 80 1z m42 6 c0 -3 -4 -8 -10 -11 -5 -3
-10 -1 -10 4 0 6 5 11 10 11 6 0 10 -2 10 -4z m-180 -15 c0 -12 -29 -23 -42
-15 -6 4 -5 10 3 15 18 11 39 11 39 0z m40 -1 c0 -5 -7 -10 -15 -10 -8 0 -15
5 -15 10 0 6 7 10 15 10 8 0 15 -4 15 -10z m-100 -10 c0 -5 -9 -10 -20 -10
-11 0 -20 5 -20 10 0 6 9 10 20 10 11 0 20 -4 20 -10z m-150 -20 c0 -21 -26
-38 -38 -25 -4 4 -1 10 6 12 6 3 12 11 12 19 0 8 5 14 10 14 6 0 10 -9 10 -20z
m-4009 0 c23 -13 25 -38 3 -47 -18 -7 -34 12 -34 40 0 20 4 21 31 7z m1557
-40 c11 -18 8 -21 -24 -35 -49 -20 -114 -20 -114 0 0 8 6 15 14 15 8 0 24 9
37 20 31 25 71 25 87 0z m2547 -58 c-8 -8 -25 10 -19 20 4 6 9 5 15 -3 4 -7 6
-15 4 -17z m-20 -72 c68 -53 80 -58 89 -37 5 10 7 10 12 0 3 -7 18 -13 34 -13
15 0 30 -6 33 -13 4 -11 -7 -12 -49 -9 -38 3 -61 0 -78 -11 -28 -18 -145 -25
-213 -13 -38 7 -42 10 -33 27 9 16 22 19 75 19 l65 0 -6 43 c-3 23 -8 48 -10
55 -2 8 -1 19 3 25 5 8 9 6 11 -5 2 -10 32 -40 67 -68z m32 38 c-3 -8 -6 -5
-6 6 -1 11 2 17 5 13 3 -3 4 -12 1 -19z m-1147 -48 l0 -40 -46 0 -45 0 21 30
c20 28 46 49 63 50 4 0 7 -18 7 -40z m-655 -30 c3 -5 1 -10 -4 -10 -6 0 -11 5
-11 10 0 6 2 10 4 10 3 0 8 -4 11 -10z m-3890 -30 c-10 -11 -25 -20 -33 -20
-8 0 -30 -12 -49 -26 -19 -14 -37 -23 -41 -19 -8 8 37 44 55 45 7 0 17 9 23
20 7 12 21 20 37 20 25 0 26 0 8 -20z m5398 3 c-9 -26 -33 -59 -33 -46 0 6
-12 18 -26 28 -24 16 -27 16 -45 -1 -17 -15 -19 -15 -25 0 -9 23 -34 20 -34
-4 0 -13 -9 -22 -27 -26 -16 -3 -43 -10 -61 -16 -36 -11 -78 -4 -102 17 -8 7
-24 15 -35 19 -11 3 13 4 53 2 71 -3 102 7 102 35 0 5 53 9 120 9 109 0 119
-1 113 -17z m24 -94 l-15 -21 -7 21 c-3 12 -11 21 -16 21 -16 0 1 21 25 29 27
11 34 -19 13 -50z m-4467 8 c0 -27 -50 -62 -57 -39 -3 6 -14 12 -26 12 -12 0
-28 4 -36 9 -17 11 -1 22 49 32 63 12 70 11 70 -14z m2970 -71 c0 -11 -19 -15
-25 -6 -3 5 1 10 9 10 9 0 16 -2 16 -4z m689 -47 c13 -11 20 -19 16 -19 -4 0
3 -9 16 -21 17 -14 20 -22 12 -25 -7 -3 -13 -12 -13 -21 0 -11 -13 -7 -54 16
-29 17 -66 31 -82 31 -16 0 -46 6 -68 14 l-39 13 44 16 c78 29 127 27 168 -4z
m-2430 -105 c7 -41 21 -94 32 -117 17 -38 19 -69 19 -328 0 -246 -2 -288 -15
-293 -8 -3 -15 -11 -15 -18 0 -7 -13 -53 -28 -103 l-29 -90 -51 -3 c-29 -2
-52 -1 -52 1 0 3 11 72 24 153 28 172 33 205 46 332 5 51 19 118 29 150 11 31
20 84 22 117 2 74 -17 171 -37 179 -21 8 -17 46 9 71 12 13 24 23 28 24 3 1
11 -33 18 -75z m3251 18 c24 -51 158 -182 185 -182 13 0 27 5 30 10 3 6 15 10
26 10 10 0 19 5 19 10 0 6 9 10 20 10 11 0 20 7 20 15 0 9 10 20 23 25 25 11
60 32 67 41 11 13 50 29 69 29 12 0 21 5 21 10 0 6 7 10 15 10 8 0 15 5 15 10
0 20 19 9 39 -24 31 -49 27 -122 -5 -95 -10 8 -12 3 -7 -26 5 -32 2 -41 -18
-57 -13 -11 -18 -17 -11 -13 18 9 15 -12 -4 -23 -9 -5 -15 -12 -13 -16 6 -18
-27 -75 -52 -90 -16 -10 -29 -21 -29 -27 0 -5 -14 -9 -31 -9 -17 0 -28 -4 -24
-10 3 -5 -1 -10 -9 -10 -13 0 -65 -61 -58 -67 1 -2 2 -17 2 -34 0 -31 -1 -32
-37 -24 -21 4 -48 8 -60 9 -19 1 -23 8 -28 51 -3 28 -5 61 -3 75 2 17 -2 25
-12 26 -8 0 -28 4 -43 9 -16 4 -46 2 -70 -4 -63 -17 -137 -16 -186 3 -33 13
-46 14 -57 5 -25 -21 -29 1 -9 39 23 42 22 72 -4 72 -12 0 -22 -13 -31 -40 -7
-22 -18 -40 -23 -40 -6 0 -8 -3 -4 -6 3 -4 -1 -20 -9 -35 -11 -23 -21 -29 -42
-27 -15 1 -33 -1 -39 -5 -6 -4 -16 0 -23 8 -7 8 -17 15 -22 15 -23 0 -118 97
-112 114 3 8 1 17 -5 21 -6 3 -11 15 -11 26 0 10 -3 18 -7 18 -23 -4 -29 4
-25 29 2 16 11 33 20 39 28 17 89 3 119 -26 57 -56 111 -91 139 -91 35 1 51
13 86 66 14 22 39 55 56 73 16 18 42 58 56 88 24 48 30 54 54 51 19 -2 31 -13
42 -36z m-710 -162 c0 -5 -4 -10 -10 -10 -5 0 -10 5 -10 10 0 6 5 10 10 10 6
0 10 -4 10 -10z m-3750 -127 c0 -73 41 -264 59 -271 31 -12 71 -72 71 -107 0
-15 45 -117 105 -238 l34 -68 -32 3 c-26 2 -36 12 -61 55 -16 29 -34 49 -39
46 -6 -4 -8 6 -4 26 9 42 -18 93 -42 81 -9 -5 -37 -14 -63 -21 l-48 -12 0 -88
0 -89 -102 1 c-87 1 -98 3 -70 11 17 6 33 15 33 19 1 5 2 15 3 21 0 7 13 19
29 26 15 7 27 21 27 32 0 11 8 24 19 29 10 6 22 27 25 46 4 20 14 39 22 42 12
4 14 46 14 254 0 159 4 249 10 249 6 0 10 -21 10 -47z m854 -94 c-8 -14 -24
-10 -24 6 0 9 6 12 15 9 8 -4 12 -10 9 -15z m3370 -104 c-4 -22 -8 -44 -9 -50
0 -5 -8 -9 -18 -7 -9 2 -17 -1 -17 -5 0 -11 -58 -14 -65 -3 -3 5 -1 11 5 15 5
3 10 19 10 34 0 27 12 44 60 80 25 19 25 19 33 -2 4 -12 5 -40 1 -62z m-2411
-10 l17 -35 -26 0 c-56 0 -107 -45 -118 -103 -4 -21 -11 -37 -16 -37 -6 0 -13
0 -17 0 -14 0 -5 74 11 85 9 7 16 18 16 26 0 17 48 59 67 59 8 0 11 5 7 11 -7
11 12 29 32 29 6 0 18 -16 27 -35z m1917 -5 c-20 -13 -33 -13 -25 0 3 6 14 10
23 10 15 0 15 -2 2 -10z m4 -25 c-7 -17 -20 -20 -28 -6 -4 5 0 12 6 14 23 9
28 7 22 -8z m142 -98 c19 -58 42 -106 90 -187 20 -35 34 -74 38 -107 l5 -53
-94 0 -95 0 1 193 c1 136 4 183 10 160 6 -22 14 -30 24 -27 13 5 13 10 0 34
-17 33 -20 54 -6 45 5 -3 17 -29 27 -58z m-2312 7 c9 -24 2 -26 -12 -4 -7 11
-8 20 -3 20 5 0 12 -7 15 -16z m61 6 c-3 -5 -10 -10 -16 -10 -5 0 -9 5 -9 10
0 6 7 10 16 10 8 0 12 -4 9 -10z m-1548 -222 c-3 -8 -6 -5 -6 6 -1 11 2 17 5
13 3 -3 4 -12 1 -19z m873 -78 c0 -11 -4 -20 -10 -20 -5 0 -10 9 -10 20 0 11
5 20 10 20 6 0 10 -9 10 -20z m4040 -70 c0 -5 -4 -10 -10 -10 -5 0 -10 5 -10
10 0 6 5 10 10 10 6 0 10 -4 10 -10z m-1923 -15 c0 -8 -4 -12 -9 -9 -5 3 -6
10 -3 15 9 13 12 11 12 -6z m1961 -52 c-6 -8 -20 -12 -30 -10 -10 3 -18 1 -18
-4 0 -5 8 -9 18 -9 11 0 13 -3 5 -8 -8 -5 -9 -13 -3 -22 6 -8 10 -33 10 -54 0
-37 -1 -38 -18 -23 -10 10 -27 17 -37 17 -23 0 -114 53 -142 82 l-22 23 39 -1
c21 0 47 -7 57 -14 15 -12 16 -12 6 0 -19 21 -16 28 20 47 51 27 69 27 63 1
-3 -13 -3 -17 0 -10 3 6 10 10 15 7 4 -3 14 3 21 14 13 21 13 21 20 0 5 -13 4
-27 -4 -36z m-5579 -69 c6 8 35 17 64 20 28 4 68 10 89 13 30 4 38 1 48 -17 7
-13 8 -26 2 -33 -5 -7 -7 -31 -6 -54 2 -24 -1 -43 -6 -43 -6 0 -10 4 -10 9 0
6 -16 7 -35 4 -21 -3 -41 -1 -50 7 -11 9 -18 10 -29 1 -24 -20 -87 -20 -105 1
-9 10 -14 21 -11 23 3 3 -6 12 -19 21 -18 13 -25 14 -31 4 -5 -7 -9 2 -12 25
-4 34 -2 36 18 32 15 -2 25 2 29 12 5 13 10 12 30 -11 19 -22 25 -25 34 -14z
m995 -109 c8 -12 12 -25 9 -29 -15 -15 -30 -4 -40 28 -9 28 -8 33 3 29 7 -2
20 -15 28 -28z m3831 10 c17 -7 43 -17 59 -24 38 -16 28 -23 -15 -11 -43 13
-105 13 -147 1 -29 -9 -34 -7 -49 15 -11 17 -22 23 -37 19 -11 -2 -7 2 9 10
34 16 129 11 180 -10z m-3542 -25 c3 -11 1 -20 -4 -20 -5 0 -9 2 -9 4 0 2 -3
11 -6 20 -3 9 -2 16 4 16 5 0 12 -9 15 -20z m-227 -35 c-5 -19 -2 -25 9 -25
19 0 54 -73 55 -113 0 -16 4 -26 10 -22 11 7 44 -41 45 -66 0 -24 72 -71 96
-64 15 5 18 3 12 -12 -12 -33 -35 -63 -49 -63 -23 0 -34 -33 -18 -51 13 -15
12 -17 -11 -23 -20 -5 -25 -13 -25 -37 0 -28 -2 -31 -25 -25 -20 5 -25 3 -25
-13 0 -10 7 -22 16 -25 9 -3 14 -13 11 -21 -7 -18 21 -75 36 -74 8 0 8 2 0 6
-29 11 -8 107 25 117 11 4 23 17 26 29 l6 22 23 -26 c65 -77 62 -65 31 -126
-15 -30 -34 -58 -43 -61 -9 -3 -22 -11 -28 -18 -10 -9 -9 -13 2 -18 8 -3 17
-17 21 -31 8 -34 34 -29 54 10 9 17 24 44 35 60 10 17 19 31 19 32 1 1 13 4
29 8 21 6 26 4 22 -7 -3 -8 1 -21 10 -28 8 -7 15 -23 15 -35 0 -23 22 -35 67
-35 20 0 21 -4 17 -57 -6 -67 -9 -73 -34 -73 -16 0 -19 -5 -14 -32 3 -18 7
-39 10 -45 4 -14 -6 -16 -45 -13 -13 1 -27 -4 -32 -11 -6 -11 -17 -11 -54 -1
-25 7 -58 12 -75 12 -16 0 -32 5 -35 10 -3 6 -12 10 -18 9 -9 0 -9 -2 1 -6 6
-2 12 -11 12 -19 0 -12 -55 -14 -355 -14 l-355 0 0 201 c0 175 2 200 15 189
14 -12 55 -5 55 10 0 4 9 6 20 3 11 -3 20 -10 20 -15 0 -6 7 -8 15 -4 11 4 15
-1 15 -19 0 -13 -4 -27 -10 -30 -17 -11 -11 -20 21 -32 17 -7 28 -17 24 -22
-11 -19 14 -12 35 9 20 20 20 20 26 -7 4 -15 2 -39 -4 -55 -10 -26 -9 -28 9
-23 11 4 27 1 35 -6 10 -8 18 -9 22 -2 20 30 87 42 136 23 14 -5 26 -6 26 -2
0 4 -25 35 -55 67 -111 120 -165 221 -185 349 -13 74 -12 80 6 93 36 26 49 13
55 -60 3 -37 8 -70 12 -73 9 -9 27 5 27 22 0 9 11 14 30 14 20 0 30 -5 30 -14
0 -18 43 -66 59 -66 6 0 11 8 11 18 0 11 9 27 20 37 33 30 70 112 70 155 0 22
-7 57 -15 77 -8 19 -15 48 -15 64 0 16 -5 38 -12 48 -14 23 -4 51 18 51 12 0
15 -6 10 -25z m525 -11 c4 -16 7 -21 8 -12 0 10 10 22 22 29 19 9 20 8 14 -10
-5 -16 2 -24 34 -40 32 -17 39 -26 37 -45 -1 -14 -7 -31 -13 -38 -6 -7 -11
-30 -11 -51 -1 -21 -4 -42 -7 -47 -11 -17 7 -11 20 7 11 14 14 14 27 2 14 -12
13 -16 -7 -35 -13 -12 -30 -24 -39 -27 -9 -4 -16 -13 -16 -21 0 -13 5 -14 27
-5 20 8 30 6 41 -5 14 -13 17 -12 28 10 7 13 11 31 8 38 -3 8 4 16 17 19 18 5
20 9 10 21 -10 12 -9 14 8 9 18 -5 19 -14 20 -129 0 -68 -3 -124 -7 -124 -4 0
-17 18 -30 40 -14 24 -27 37 -36 34 -7 -3 -22 6 -33 20 -17 21 -29 25 -103 29
-71 4 -85 8 -91 24 -4 10 -14 25 -23 32 -27 22 -18 29 31 28 38 -2 48 1 51 16
3 12 -3 17 -21 17 -14 0 -27 -6 -29 -12 -4 -10 -10 -10 -31 -1 -15 7 -27 9
-27 4 0 -5 -9 -7 -20 -4 -11 3 -20 9 -20 13 0 5 -8 11 -17 14 -21 7 -63 66
-63 88 0 9 9 18 20 21 12 3 18 11 15 19 -4 9 5 20 22 29 36 18 48 30 48 49 0
17 41 27 95 24 30 -1 36 -6 41 -30z m88 0 c3 -16 1 -17 -13 -5 -19 16 -21 34
-3 29 6 -3 14 -13 16 -24z m3202 -4 c23 -13 26 -60 4 -60 -9 0 -15 9 -15 23 0
13 -5 28 -12 35 -15 15 -3 16 23 2z m-1478 -20 c20 0 23 -28 4 -36 -15 -5 -11
-60 4 -70 15 -9 10 -22 -12 -29 -18 -6 -19 -9 -6 -23 22 -27 29 -42 18 -42 -5
0 -12 8 -14 18 -4 14 -5 14 -6 1 0 -9 17 -28 39 -43 l39 -26 -21 -37 c-12 -21
-25 -40 -28 -43 -3 -3 -11 -17 -17 -32 -10 -23 -10 -27 5 -31 12 -3 11 -5 -5
-6 -17 -1 -23 -7 -23 -25 0 -14 -5 -28 -11 -31 -8 -6 -7 -160 1 -160 1 0 3
-29 5 -65 4 -91 4 -90 13 -89 21 4 28 -4 30 -32 2 -20 -1 -28 -8 -24 -6 4 -9
13 -6 21 3 8 1 14 -4 14 -5 0 -8 -14 -7 -30 2 -27 5 -30 27 -25 19 4 21 3 10
-5 -12 -8 -13 -10 -1 -10 8 0 11 -3 7 -7 -3 -4 2 -12 12 -17 15 -9 18 -16 11
-33 -11 -30 -59 -33 -59 -4 0 11 -7 27 -16 35 -18 19 -4 22 16 4 8 -7 6 -3 -3
8 -11 13 -18 39 -19 63 0 30 -4 41 -16 41 -8 0 -23 6 -31 13 -31 25 -91 40
-106 27 -15 -13 -16 -12 -19 28 -1 9 -5 22 -9 29 -4 6 -1 14 5 16 8 3 5 6 -6
6 -12 1 -16 6 -12 16 3 8 1 15 -5 15 -6 0 -9 7 -6 15 4 8 2 17 -4 20 -5 4 -7
11 -3 16 3 5 9 7 14 4 4 -3 7 11 5 30 -2 33 7 46 20 26 3 -5 19 -12 35 -16 17
-4 28 -10 25 -15 -3 -5 3 -7 12 -5 10 1 17 10 17 19 -1 9 2 16 7 16 5 0 9 12
8 28 0 15 -3 21 -6 15 -3 -10 -9 -9 -20 3 -12 12 -18 13 -23 3 -5 -7 -16 -9
-26 -5 -18 6 -18 5 -1 -8 19 -15 24 -31 5 -20 -7 5 -8 3 -3 -5 5 -9 2 -12 -11
-9 -11 2 -19 10 -19 18 0 8 -4 21 -9 29 -6 9 -5 12 1 8 12 -7 12 67 1 79 -13
12 -9 26 5 18 9 -6 9 -4 -1 8 -10 13 -10 17 0 21 10 3 9 9 -4 24 -22 24 -23
33 -2 33 8 0 12 5 9 10 -3 6 -1 10 4 10 6 0 11 12 11 26 0 15 10 34 23 44 18
15 20 21 9 32 -11 11 -12 10 -6 -5 5 -13 2 -16 -9 -11 -16 6 -18 57 -2 71 4 4
5 2 1 -4 -4 -7 -2 -13 5 -13 7 0 9 8 6 21 -4 15 -2 19 9 15 9 -3 14 1 14 14 0
11 5 20 11 20 5 0 7 5 3 12 -5 8 -2 9 9 5 11 -4 17 -1 17 8 0 16 26 25 55 19
11 -2 28 -4 38 -4z m-303 -141 l0 -88 -85 -3 c-47 -2 -90 -1 -95 0 -15 5 -12
22 3 22 19 0 61 48 82 93 10 22 24 37 35 37 10 0 20 6 23 13 3 8 12 14 21 14
13 0 16 -14 16 -88z m-3072 5 c17 -59 34 -80 70 -87 15 -3 48 -13 73 -23 29
-11 52 -15 65 -9 10 4 22 7 27 7 4 -1 7 2 7 7 0 5 9 13 20 16 11 3 20 13 20
21 0 19 41 35 57 22 7 -6 19 -8 27 -5 24 10 43 -44 45 -127 1 -57 -2 -81 -14
-92 -13 -14 -15 -14 -15 3 0 15 -2 16 -10 3 -6 -9 -6 -18 0 -24 6 -6 10 -19 9
-31 -1 -17 -2 -16 -9 5 -8 26 -8 25 -29 -31 -8 -21 -15 -26 -34 -22 -17 3 -32
-2 -47 -17 -18 -18 -24 -20 -32 -9 -6 10 -7 6 -2 -11 7 -24 7 -120 0 -127 -1
-2 -28 9 -58 24 -70 35 -95 80 -69 124 14 25 14 29 -3 48 -16 18 -26 20 -75
15 -31 -4 -72 -2 -92 4 -27 7 -42 6 -60 -4 -13 -7 -39 -13 -57 -14 -25 0 -35
6 -44 25 -9 21 -38 36 -38 20 0 -14 58 -110 80 -132 14 -14 25 -30 25 -36 0
-6 14 -15 32 -20 17 -5 33 -18 36 -28 4 -15 -4 -19 -47 -26 -61 -10 -96 -6
-96 13 0 10 -13 14 -45 14 -38 0 -50 -5 -70 -27 -13 -16 -25 -35 -25 -43 -2
-40 -111 -110 -129 -83 -3 6 -24 11 -46 11 -22 1 -41 6 -43 12 -2 5 -12 10
-23 10 -12 0 -16 5 -13 14 3 8 -3 20 -14 27 -11 7 -17 19 -15 29 3 9 -1 23 -9
31 -22 23 -17 69 8 75 28 7 49 51 33 70 -6 8 -18 14 -25 14 -8 0 -14 9 -14 20
0 11 5 20 11 20 8 0 9 13 5 40 -4 25 -2 40 4 40 18 0 11 20 -7 20 -17 1 -17 1
0 14 11 8 17 27 17 50 0 20 5 36 11 36 5 0 8 4 5 9 -3 5 4 27 16 49 17 34 28
42 60 47 29 5 42 3 51 -8 16 -21 129 -77 155 -77 11 0 41 9 67 20 59 25 64 25
75 -2 5 -13 9 -17 9 -10 1 6 10 12 22 12 25 0 61 18 55 29 -9 13 14 96 30 107
9 7 26 9 42 5 21 -6 29 -17 40 -57z m-664 -8 c-3 -9 -12 -16 -20 -16 -15 0
-18 12 -6 24 4 4 8 12 8 17 3 22 5 23 14 7 6 -9 7 -23 4 -32z m242 13 l19 -22
-40 7 c-46 9 -49 11 -40 25 10 18 41 12 61 -10z m4774 -66 l0 -38 -14 27 c-8
16 -18 32 -21 38 -3 5 3 10 14 10 18 0 21 -6 21 -37z m-5043 -14 c-10 -16 -13
-17 -20 -3 -5 9 -6 18 -3 21 3 4 6 1 6 -6 0 -7 4 -10 10 -6 5 3 7 13 4 23 -5
14 -4 14 4 3 7 -10 7 -20 -1 -32z m5705 -5 c-4 -17 -29 -43 -43 -44 -4 0 1 16
10 35 17 35 39 42 33 9z m-4132 -55 c0 -5 -7 -9 -15 -9 -8 0 -15 7 -15 15 0 9
6 12 15 9 8 -4 15 -10 15 -15z m4050 -73 c0 -22 -6 -36 -16 -40 -9 -4 -14 -13
-10 -22 3 -8 2 -12 -4 -9 -13 8 -13 31 2 72 15 43 28 42 28 -1z m-1848 -28
c-10 -22 -11 -21 -11 12 -1 26 2 31 11 22 8 -8 8 -17 0 -34z m-1825 -34 c-3
-3 -12 -4 -19 -1 -8 3 -5 6 6 6 11 1 17 -2 13 -5z m2442 -123 c12 -8 12 -12 3
-24 -21 -25 -152 -12 -152 15 0 5 4 7 8 4 4 -2 14 -1 22 5 19 11 101 11 119 0z
m-2083 -10 c-7 -11 -46 -21 -46 -12 0 13 13 21 32 21 11 0 17 -4 14 -9z m2684
-105 c0 -2 -12 -11 -27 -20 l-28 -17 24 20 c23 21 31 25 31 17z m-4319 -22
c-36 -15 -67 -12 -56 6 3 5 25 10 48 10 l42 -1 -34 -15z m65 -77 c9 -8 -60
-31 -96 -31 -19 0 -53 4 -74 8 -37 8 -39 8 -33 -13 4 -17 -1 -22 -26 -29 -81
-21 -7 -61 143 -76 19 -2 62 -14 95 -27 51 -19 56 -24 36 -29 -21 -5 -22 -7
-7 -19 31 -26 11 -75 -31 -77 -31 -1 -29 12 2 20 27 7 34 31 10 40 -8 3 -12
12 -9 21 5 13 -20 15 -215 15 -195 0 -220 2 -214 16 4 10 -2 17 -16 21 -26 7
-22 28 5 28 10 1 18 6 17 12 -1 6 5 10 15 9 17 -1 19 4 21 57 1 17 6 27 13 25
6 -2 20 4 30 14 13 13 28 17 56 14 20 -3 44 -1 52 4 14 10 216 7 226 -3z
m3166 -4 c-10 -4 -10 -11 3 -31 l16 -27 -20 24 c-21 23 -20 42 2 40 8 0 8 -2
-1 -6z m-3097 -23 c3 -5 1 -10 -4 -10 -6 0 -11 5 -11 10 0 6 2 10 4 10 3 0 8
-4 11 -10z m3217 -37 c-3 -16 -7 -22 -10 -15 -4 13 4 42 11 42 2 0 2 -12 -1
-27z m-2489 -334 c21 -22 35 -44 32 -49 -3 -4 -29 -11 -58 -15 -28 -4 -62 -11
-75 -16 -17 -7 -24 -5 -28 6 -9 23 5 67 18 59 7 -4 8 -3 4 5 -15 24 4 51 38
51 24 0 40 -9 69 -41z m4314 -254 c9 -16 19 -32 23 -35 13 -10 62 -93 70 -120
13 -47 -1 -55 -55 -31 -29 13 -68 21 -101 21 -63 0 -63 1 -38 95 10 38 14 79
10 112 -4 36 -2 53 6 55 14 5 60 -49 85 -97z m-2742 -67 c8 -18 29 -41 45 -50
23 -13 30 -24 30 -47 0 -16 6 -36 13 -43 8 -7 12 -19 9 -26 -2 -6 1 -12 6 -12
13 0 72 -55 72 -68 0 -15 -40 -22 -146 -23 -55 0 -106 -5 -114 -9 -9 -5 -23
-5 -31 1 -12 7 -10 15 9 49 15 26 25 64 28 108 5 62 38 152 56 152 4 0 14 -15
23 -32z m-629 -235 c-2 -3 -21 -8 -40 -13 -33 -7 -37 -6 -42 16 -11 44 10 121
51 187 l30 47 3 -116 c1 -64 1 -119 -2 -121z m-1182 190 c28 -36 36 -57 26
-73 -5 -9 -3 -18 7 -25 18 -13 27 -70 14 -92 -7 -14 -11 -13 -31 7 -16 16 -21
29 -16 50 3 19 1 30 -9 34 -8 3 -15 16 -15 28 0 13 -6 35 -14 50 -10 19 -11
29 -3 37 15 15 16 15 41 -16z m4977 -76 c-8 -8 -11 -2 -11 19 0 40 14 54 18
19 2 -15 -1 -32 -7 -38z m-3495 -81 c15 -22 19 -56 6 -56 -20 0 -32 28 -31 75
1 27 4 39 6 25 3 -13 11 -33 19 -44z m1424 27 c36 -25 59 -55 53 -70 -6 -16
-135 -18 -164 -3 -27 15 -24 40 9 67 33 27 69 29 102 6z m-2 -243 c7 -11 9
-20 4 -20 -4 0 -13 9 -20 20 -7 11 -9 20 -4 20 4 0 13 -9 20 -20z m903 -63
c-8 -8 -11 -5 -11 12 0 16 -5 21 -14 18 -10 -4 -12 0 -9 14 5 17 7 17 25 -7
15 -19 18 -28 9 -37z m-916 -17 c3 -5 -1 -10 -9 -10 -9 0 -16 5 -16 10 0 6 4
10 9 10 6 0 13 -4 16 -10z m1005 -127 c0 -7 -4 -13 -10 -13 -5 0 -10 12 -10
28 0 21 2 24 10 12 5 -8 10 -21 10 -27z m-170 -77 c0 -7 -9 -16 -20 -19 -23
-6 -26 3 -8 21 16 16 28 15 28 -2z"/>
<path d="M1585 6101 c-61 -11 -132 -48 -176 -92 -22 -22 -38 -43 -35 -47 12
-11 50 -9 75 4 34 18 56 17 108 -2 38 -15 58 -34 35 -34 -5 0 -17 -7 -28 -16
-10 -8 -13 -13 -7 -9 8 4 11 1 7 -9 -3 -8 -24 -24 -47 -36 l-42 -21 33 31 c18
16 27 30 20 30 -15 0 -98 -86 -98 -102 0 -9 3 -9 12 0 7 7 38 12 72 12 l61 -1
-22 -18 c-31 -26 -29 -32 10 -24 40 7 79 27 96 47 11 13 11 16 0 16 -7 0 -1
12 14 28 15 15 27 37 27 49 0 11 9 31 19 45 30 37 36 108 12 136 -16 18 -24
20 -43 13 -15 -5 -30 -6 -39 0 -8 5 -16 8 -19 8 -3 -1 -23 -5 -45 -8z"/>
<path d="M1350 5460 c-9 -17 -7 -28 10 -55 12 -19 26 -35 31 -35 12 0 11 67
-1 91 -14 25 -27 24 -40 -1z"/>
<path d="M2030 4809 c-53 -23 -90 -72 -90 -117 0 -18 3 -32 8 -33 76 -8 102 2
102 41 0 33 74 80 114 73 33 -7 37 24 4 36 -55 20 -93 20 -138 0z m50 -29 c0
-5 -7 -10 -15 -10 -8 0 -15 5 -15 10 0 6 7 10 15 10 8 0 15 -4 15 -10z"/>
<path d="M2146 4408 c-9 -12 -16 -17 -16 -10 0 6 -7 12 -15 12 -8 0 -15 -4
-15 -9 0 -5 -3 -18 -7 -28 -6 -17 -5 -17 13 -1 10 9 23 16 28 15 5 -1 15 8 24
21 19 29 8 29 -12 0z"/>
<path d="M2950 5132 c0 -8 -29 -12 -97 -12 -93 -1 -96 -2 -66 -15 40 -17 255
-15 261 3 2 8 -10 12 -35 12 -22 0 -44 5 -51 12 -9 9 -12 9 -12 0z"/>
<path d="M2762 4830 c-36 -15 -24 -43 23 -53 77 -16 205 -52 205 -57 0 -3 -37
-6 -82 -6 -65 -2 -84 -5 -95 -19 -7 -10 -10 -22 -7 -26 7 -12 51 -11 59 1 10
17 43 11 58 -10 8 -11 28 -25 46 -31 26 -9 29 -14 20 -25 -16 -19 -6 -28 22
-19 15 5 18 10 9 15 -8 5 -3 14 19 29 27 19 29 25 19 46 -6 13 -20 25 -32 27
-11 2 -19 8 -16 13 3 6 12 9 20 8 28 -4 42 6 32 24 -6 9 -55 31 -118 51 -130
41 -152 45 -182 32z"/>
<path d="M3538 4583 c-10 -2 -18 -11 -18 -19 0 -20 14 -17 35 6 18 20 16 22
-17 13z"/>
<path d="M3455 4550 c3 -5 15 -10 25 -10 10 0 22 5 25 10 4 6 -7 10 -25 10
-18 0 -29 -4 -25 -10z"/>
<path d="M3255 4280 c-3 -5 -1 -10 4 -10 6 0 11 5 11 10 0 6 -2 10 -4 10 -3 0
-8 -4 -11 -10z"/>
<path d="M2992 4099 c-11 -18 -11 -23 5 -34 15 -11 22 -11 45 3 26 15 26 17
11 34 -21 24 -45 23 -61 -3z"/>
<path d="M3095 3850 c-3 -5 -1 -10 4 -10 6 0 11 5 11 10 0 6 -2 10 -4 10 -3 0
-8 -4 -11 -10z"/>
<path d="M3425 3850 c-4 -6 7 -10 25 -10 18 0 29 4 25 10 -3 6 -15 10 -25 10
-10 0 -22 -4 -25 -10z"/>
<path d="M3128 3828 c6 -6 39 -15 72 -19 49 -6 68 -3 98 12 l37 18 -109 1
c-85 0 -107 -3 -98 -12z"/>
<path d="M4229 3600 c-49 -8 -78 -21 -109 -48 -24 -20 -16 -36 11 -22 14 8 31
7 64 -5 25 -8 52 -15 60 -15 8 0 20 -8 27 -18 7 -10 28 -22 47 -25 27 -6 39
-3 57 14 16 15 20 26 14 38 -5 9 -11 24 -14 34 -5 17 -79 58 -101 56 -5 -1
-31 -5 -56 -9z"/>
<path d="M2873 3560 c-58 -14 -85 -38 -82 -73 2 -18 1 -37 -3 -42 -3 -6 2 -23
12 -40 15 -28 21 -30 81 -33 35 -1 74 -4 87 -7 39 -9 24 -25 -23 -25 -45 0
-45 0 -28 -19 25 -27 101 -29 178 -6 65 20 85 37 85 71 0 27 4 30 52 39 37 7
38 7 57 -38 17 -40 26 -47 76 -66 60 -22 144 -28 176 -11 30 16 23 30 -16 30
-19 0 -35 4 -35 9 0 17 63 31 110 25 34 -4 49 -2 58 8 10 12 5 19 -25 39 -48
32 -51 46 -12 56 52 14 44 29 -25 47 -87 24 -311 20 -329 -5 -21 -28 -53 -40
-81 -29 -14 5 -26 14 -26 20 0 17 -62 37 -135 44 -39 4 -81 8 -95 10 -14 3
-40 1 -57 -4z"/>
<path d="M3230 3525 c0 -9 6 -12 15 -9 8 4 15 10 15 15 0 5 -7 9 -15 9 -8 0
-15 -7 -15 -15z"/>
<path d="M4390 3165 l-25 -13 27 -7 c29 -7 90 13 82 27 -8 13 -57 9 -84 -7z"/>
<path d="M4607 3150 c-18 -14 -40 -20 -77 -20 -31 0 -49 -4 -45 -10 3 -5 -1
-10 -10 -10 -10 0 -15 -7 -13 -17 4 -24 60 -29 81 -9 9 9 20 16 26 16 6 0 11
5 11 10 0 6 10 10 23 10 30 0 62 24 53 38 -10 17 -20 15 -49 -8z"/>
<path d="M3417 3153 c-4 -3 -7 -24 -7 -46 0 -30 3 -38 15 -34 8 4 17 2 20 -3
4 -6 17 -10 29 -10 13 0 29 -7 36 -15 23 -27 65 -43 83 -31 13 10 6 17 -41 46
-30 19 -70 50 -88 68 -35 34 -37 36 -47 25z"/>
<path d="M4390 2983 c-25 -8 -52 -17 -60 -21 -8 -3 -21 -6 -27 -7 -7 0 -13 -4
-13 -8 0 -4 0 -10 0 -15 0 -4 14 -13 30 -21 17 -7 54 -33 83 -57 43 -37 51
-50 48 -72 -1 -15 -8 -30 -13 -33 -6 -4 -7 -12 -3 -18 5 -9 10 -9 21 0 11 9
14 8 14 -7 0 -16 2 -17 10 -4 8 12 13 13 30 2 18 -11 24 -9 47 12 15 14 39 30
54 37 33 13 46 39 26 54 -7 5 -16 17 -20 25 -4 10 -6 8 -6 -7 -1 -13 -6 -23
-12 -23 -5 0 -7 -4 -4 -10 4 -6 -7 -10 -25 -10 -18 0 -33 6 -36 15 -4 8 -10
13 -14 10 -8 -5 -24 25 -16 32 9 10 57 13 51 3 -3 -5 -1 -10 4 -10 6 0 11 -8
11 -17 1 -17 1 -17 11 0 6 10 8 21 5 24 -9 9 89 63 113 63 39 0 29 18 -25 44
-38 19 -69 27 -102 26 -26 -1 -67 0 -92 3 -27 3 -63 0 -90 -10z m90 -23 c-8
-5 -19 -10 -25 -10 -5 0 -3 5 5 10 8 5 20 10 25 10 6 0 3 -5 -5 -10z m60 6 c0
-9 -30 -14 -35 -6 -4 6 3 10 14 10 12 0 21 -2 21 -4z m-55 -107 c11 -16 1 -19
-13 -3 -7 8 -8 14 -3 14 5 0 13 -5 16 -11z"/>
<path d="M3398 2833 c7 -3 16 -2 19 1 4 3 -2 6 -13 5 -11 0 -14 -3 -6 -6z"/>
<path d="M4536 2682 c-9 -15 19 -33 38 -26 9 4 15 12 13 18 -5 14 -43 20 -51
8z"/>
<path d="M4527 2634 c4 -10 -1 -17 -15 -20 -13 -4 -18 -12 -15 -25 6 -20 6
-21 73 -24 25 -1 37 0 28 2 -10 3 -18 8 -18 13 0 5 7 7 16 3 12 -4 15 -1 12
13 -2 10 -11 19 -20 19 -9 0 -25 8 -35 18 -24 21 -34 22 -26 1z"/>
<path d="M4609 2459 c-7 -4 -16 -6 -20 -4 -3 3 -12 -6 -19 -20 -19 -36 2 -51
70 -48 30 1 86 3 123 4 37 1 70 5 73 10 2 4 -8 19 -23 33 -22 20 -39 26 -78
27 -27 1 -64 2 -81 4 -18 1 -38 -1 -45 -6z"/>
<path d="M4648 2326 c-27 -5 -48 -13 -48 -18 0 -5 -16 -6 -36 -2 -29 5 -35 4
-29 -6 6 -9 4 -11 -5 -5 -14 8 -30 -11 -30 -37 0 -14 56 -78 63 -70 1 2 19 -4
39 -12 21 -9 53 -16 73 -16 32 0 35 2 35 30 0 28 2 30 43 32 23 1 58 1 77 -1
78 -4 100 2 68 20 -9 5 -23 15 -30 22 -14 14 -112 72 -115 69 -2 -1 -4 -2 -5
-1 -20 5 -62 3 -100 -5z"/>
<path d="M4454 1929 c-8 -14 33 -48 59 -49 9 0 17 -5 17 -12 0 -8 6 -6 17 5 9
9 15 18 12 19 -2 2 -18 13 -36 26 -36 24 -58 28 -69 11z"/>
<path d="M3846 5724 c-3 -9 -6 -37 -6 -62 1 -46 1 -46 15 -22 16 28 20 86 6
94 -5 3 -12 -1 -15 -10z"/>
<path d="M5619 5569 c16 -6 28 -6 35 1 7 7 -1 10 -24 9 -33 0 -34 -1 -11 -10z"/>
<path d="M4743 4750 c-45 -7 -73 -24 -73 -47 0 -11 4 -11 20 -3 11 6 25 8 30
5 6 -4 47 -3 91 1 71 6 79 8 66 22 -20 19 -81 29 -134 22z"/>
<path d="M4257 4738 c-39 -4 -80 -14 -95 -25 l-27 -18 60 -8 c84 -11 114 -10
130 3 10 8 19 8 34 1 27 -15 31 -14 31 7 0 31 -56 48 -133 40z"/>
<path d="M4324 4406 c-9 -24 0 -41 35 -63 49 -31 178 -41 246 -18 68 22 115
47 115 61 0 20 -24 34 -40 24 -8 -6 -30 -10 -48 -10 -18 0 -46 -9 -61 -21 -24
-18 -34 -19 -64 -11 -20 6 -49 20 -64 32 -16 12 -29 17 -31 11 -5 -14 -49 -14
-57 -1 -9 14 -25 12 -31 -4z"/>
<path d="M4218 4359 c-19 -11 -24 -29 -8 -29 5 0 14 9 20 20 12 23 12 23 -12
9z"/>
<path d="M4188 4295 c-4 -18 1 -29 21 -42 14 -9 37 -27 51 -40 14 -13 28 -23
31 -23 3 0 23 -13 44 -30 29 -23 48 -30 82 -30 50 0 50 16 0 25 -43 8 -74 32
-61 45 6 6 55 13 110 15 140 5 174 21 47 22 -91 1 -271 25 -293 38 -6 3 -10
12 -10 20 0 25 -18 25 -22 0z"/>
<path d="M4650 4247 l-35 -11 35 -5 c29 -5 35 -10 33 -29 -2 -12 2 -22 8 -22
16 0 109 62 109 72 0 11 -108 8 -150 -5z"/>
<path d="M4603 4163 c-24 -9 -13 -24 15 -21 15 2 26 8 25 13 -2 12 -23 16 -40
8z"/>
<path d="M1483 4275 c-8 -22 6 -33 17 -15 13 20 12 30 0 30 -6 0 -13 -7 -17
-15z"/>
<path d="M5914 3224 c14 -55 25 -59 43 -16 12 29 12 32 -6 32 -10 0 -21 7 -25
15 -3 8 -10 15 -15 15 -5 0 -4 -19 3 -46z"/>
<path d="M6045 3140 c4 -6 11 -8 16 -5 14 9 11 15 -7 15 -8 0 -12 -5 -9 -10z"/>
<path d="M6020 3119 c0 -5 5 -7 10 -4 6 3 10 8 10 11 0 2 -4 4 -10 4 -5 0 -10
-5 -10 -11z"/>
<path d="M6012 3079 c2 -6 8 -10 13 -10 5 0 11 4 13 10 2 6 -4 11 -13 11 -9 0
-15 -5 -13 -11z"/>
<path d="M731 2344 c0 -11 3 -14 6 -6 3 7 2 16 -1 19 -3 4 -6 -2 -5 -13z"/>
<path d="M1851 1804 c0 -11 3 -14 6 -6 3 7 2 16 -1 19 -3 4 -6 -2 -5 -13z"/>
<path d="M1860 1640 c0 -34 24 -50 43 -31 9 10 8 15 -7 26 -10 8 -15 18 -11
24 3 6 -1 11 -9 11 -11 0 -16 -10 -16 -30z"/>
<path d="M1750 1484 c1 -17 47 -67 59 -63 7 3 -4 19 -24 39 -19 18 -35 30 -35
24z"/>
<path d="M2166 2113 c-11 -11 -6 -23 9 -23 8 0 15 4 15 9 0 13 -16 22 -24 14z"/>
<path d="M4010 2090 c0 -5 5 -10 10 -10 6 0 10 5 10 10 0 6 -4 10 -10 10 -5 0
-10 -4 -10 -10z"/>
<path d="M4100 2019 c0 -5 5 -7 10 -4 6 3 10 8 10 11 0 2 -4 4 -10 4 -5 0 -10
-5 -10 -11z"/>
<path d="M4100 1975 c0 -14 5 -25 11 -25 5 0 7 5 3 11 -3 6 5 3 20 -6 25 -17
26 -17 20 0 -6 14 -3 16 17 10 19 -6 21 -5 13 5 -7 7 -24 13 -38 13 -14 1 -26
5 -26 10 0 4 -4 7 -10 7 -5 0 -10 -11 -10 -25z"/>
<path d="M4070 1909 c0 -4 4 -10 9 -13 5 -3 7 -15 4 -26 -3 -11 -1 -20 4 -20
5 0 10 15 11 33 2 24 -2 34 -13 34 -8 0 -15 -4 -15 -8z"/>
<path d="M3995 1790 c-3 -5 1 -10 10 -10 9 0 13 5 10 10 -3 6 -8 10 -10 10 -2
0 -7 -4 -10 -10z"/>
<path d="M4057 1599 c-7 -28 -6 -31 10 -14 6 6 8 18 3 24 -5 9 -9 5 -13 -10z"/>
<path d="M4053 1535 c0 -8 4 -12 9 -9 5 3 6 10 3 15 -9 13 -12 11 -12 -6z"/>
<path d="M4004 1505 c11 -8 27 -15 35 -15 10 1 7 6 -9 15 -33 19 -50 18 -26 0z"/>
<path d="M560 1859 c0 -5 5 -7 10 -4 6 3 10 8 10 11 0 2 -4 4 -10 4 -5 0 -10
-5 -10 -11z"/>
<path d="M895 1761 c-3 -5 -1 -12 5 -16 5 -3 10 1 10 9 0 18 -6 21 -15 7z"/>
<path d="M200 1690 c0 -5 5 -10 11 -10 5 0 7 5 4 10 -3 6 -8 10 -11 10 -2 0
-4 -4 -4 -10z"/>
<path d="M250 1641 c0 -5 11 -8 25 -8 13 0 22 3 19 8 -3 5 -14 9 -25 9 -10 0
-19 -4 -19 -9z"/>
<path d="M205 1630 c-3 -5 -2 -10 4 -10 5 0 13 5 16 10 3 6 2 10 -4 10 -5 0
-13 -4 -16 -10z"/>
<path d="M254 1615 c-15 -11 -16 -14 -4 -15 21 0 44 16 33 23 -6 4 -19 0 -29
-8z"/>
<path d="M6323 5543 c-15 -5 -17 -23 -4 -23 5 0 11 7 15 15 3 8 4 15 3 14 -1
0 -8 -3 -14 -6z"/>
<path d="M630 5066 c0 -9 5 -16 10 -16 6 0 10 4 10 9 0 6 -4 13 -10 16 -5 3
-10 -1 -10 -9z"/>
<path d="M835 5060 c-3 -5 -2 -10 4 -10 5 0 13 5 16 10 3 6 2 10 -4 10 -5 0
-13 -4 -16 -10z"/>
<path d="M12 4626 c7 -8 15 -12 17 -11 5 6 -10 25 -20 25 -5 0 -4 -6 3 -14z"/>
<path d="M0 4445 l0 -133 48 20 48 20 -18 72 c-32 129 -37 143 -58 149 -19 5
-20 0 -20 -128z"/>
<path d="M452 4443 c-13 -3 -26 -11 -29 -20 -3 -8 -17 -19 -30 -24 -21 -8 -24
-15 -21 -46 2 -32 6 -37 23 -35 26 4 105 90 105 114 0 18 -5 19 -48 11z"/>
<path d="M853 3673 c-7 -2 -13 -15 -13 -27 0 -19 -6 -23 -37 -24 -42 -2 -63
-16 -46 -33 15 -15 98 2 98 21 0 10 17 18 48 23 36 7 47 13 47 28 0 16 -7 19
-42 18 -24 0 -49 -3 -55 -6z"/>
<path d="M263 3533 c-12 -2 -25 -14 -29 -26 -3 -12 -12 -29 -19 -37 -21 -25
-26 -65 -10 -86 14 -18 14 -17 15 12 0 27 3 31 24 27 15 -3 32 4 51 21 15 14
42 28 61 32 37 7 62 30 48 44 -10 10 -109 19 -141 13z"/>
<path d="M821 3511 c-8 -5 -11 -16 -7 -26 5 -15 14 -16 58 -11 58 8 91 22 83
37 -8 11 -115 12 -134 0z"/>
<path d="M348 3368 c-23 -6 -38 -16 -38 -25 0 -13 11 -15 73 -9 39 4 86 8 102
9 l30 2 -2 -55 c-2 -30 -9 -71 -17 -90 -12 -30 -12 -43 -1 -85 8 -28 14 -44
14 -37 1 7 14 12 31 12 37 0 38 14 5 36 -30 19 -33 44 -6 44 14 0 21 10 26 33
4 17 12 38 17 45 7 8 7 31 -2 72 -14 64 -28 74 -70 48 -16 -10 -24 -10 -40 0
-23 14 -69 14 -122 0z"/>
<path d="M690 3280 c0 -5 5 -10 10 -10 6 0 10 5 10 10 0 6 -4 10 -10 10 -5 0
-10 -4 -10 -10z"/>
<path d="M503 2932 c-3 -9 -13 -25 -21 -34 -13 -15 -10 -21 26 -55 22 -21 42
-47 44 -58 2 -15 12 -21 43 -23 23 -2 48 3 59 11 18 13 18 15 1 44 -14 23 -28
32 -64 39 -44 9 -46 11 -49 46 -3 39 -29 59 -39 30z"/>
<path d="M290 2916 c0 -8 5 -18 10 -21 6 -3 10 3 10 14 0 12 -4 21 -10 21 -5
0 -10 -6 -10 -14z"/>
<path d="M871 2921 c-14 -9 -9 -41 7 -41 15 0 34 28 27 40 -8 12 -16 13 -34 1z"/>
<path d="M828 2874 c-3 -3 -27 -8 -54 -12 -71 -10 -65 -28 8 -24 60 4 88 14
88 33 0 10 -33 12 -42 3z"/>
<path d="M6370 2414 c0 -5 5 -15 12 -22 9 -9 9 -15 -1 -24 -11 -11 -12 -10 -6
2 7 12 6 13 -6 2 -12 -11 -12 -14 1 -22 11 -7 12 -12 3 -21 -7 -7 -8 -21 -2
-42 5 -18 9 -54 10 -82 1 -27 5 -61 9 -75 5 -15 8 29 8 115 0 103 -3 144 -14
159 -8 11 -14 16 -14 10z"/>
<path d="M6085 2236 c-43 -12 -85 -44 -85 -65 1 -29 106 -54 122 -28 6 9 8 9
8 0 0 -7 12 -13 26 -13 17 0 24 4 21 13 -17 47 -18 57 -3 57 9 0 24 -8 34 -18
11 -11 36 -22 56 -25 57 -9 43 22 -24 55 -73 36 -96 40 -155 24z m-34 -79 c-8
-8 -11 -7 -11 4 0 20 13 34 18 19 3 -7 -1 -17 -7 -23z m84 23 c3 -5 -1 -10
-10 -10 -9 0 -13 5 -10 10 3 6 8 10 10 10 2 0 7 -4 10 -10z m-49 -27 c-10 -10
-19 5 -10 18 6 11 8 11 12 0 2 -7 1 -15 -2 -18z"/>
<path d="M5930 1790 c0 -13 48 -36 56 -27 4 4 1 13 -6 22 -14 17 -50 20 -50 5z"/>
<path d="M6381 1744 c0 -11 3 -14 6 -6 3 7 2 16 -1 19 -3 4 -6 -2 -5 -13z"/>
<path d="M5648 1607 c-24 -18 -51 -36 -60 -40 -26 -9 -22 -24 11 -42 16 -8 36
-22 45 -30 9 -9 16 -13 16 -8 0 5 33 9 73 9 39 0 85 4 100 9 22 6 35 3 55 -12
16 -12 39 -19 57 -17 70 6 148 23 159 34 8 9 6 11 -11 6 -17 -6 -31 2 -62 33
-23 23 -47 41 -53 41 -7 0 -26 7 -41 15 -18 9 -35 11 -50 6 -15 -6 -29 -3 -47
9 -17 12 -45 18 -87 19 -55 0 -67 -3 -105 -32z"/>
<path d="M5690 1401 c0 -10 50 -25 57 -18 2 3 -10 9 -26 15 -17 6 -31 7 -31 3z"/>
<path d="M5785 1370 c30 -8 122 -13 114 -6 -2 2 -35 6 -74 9 -42 3 -58 2 -40
-3z"/>
<path d="M6270 1361 c0 -5 7 -14 15 -21 12 -10 15 -10 15 3 0 8 -7 17 -15 21
-8 3 -15 2 -15 -3z"/>
<path d="M6341 1321 c-21 -16 -22 -19 -6 -25 10 -3 18 -5 19 -4 1 2 7 10 14
20 19 24 1 30 -27 9z"/>
<path d="M2183 910 c-45 -7 -73 -24 -73 -46 0 -17 16 -19 25 -3 4 6 14 8 23 4
9 -3 52 -3 95 1 69 6 77 8 64 22 -20 19 -81 29 -134 22z"/>
<path d="M1624 886 c-53 -23 -48 -33 19 -40 85 -9 108 -8 123 5 9 7 18 6 33
-3 11 -7 23 -9 27 -6 12 12 -5 38 -31 48 -37 14 -134 12 -171 -4z"/>
<path d="M3840 721 c0 -17 5 -31 10 -31 6 0 10 11 10 24 0 14 -4 28 -10 31 -6
4 -10 -7 -10 -24z"/>
<path d="M790 688 c0 -22 17 -41 29 -34 17 11 13 24 -9 36 -15 8 -20 8 -20 -2z"/>
<path d="M3840 659 c0 -5 5 -7 10 -4 6 3 10 8 10 11 0 2 -4 4 -10 4 -5 0 -10
-5 -10 -11z"/>
<path d="M1769 573 c-8 -47 -5 -55 30 -72 20 -11 70 -22 113 -26 64 -6 88 -4
145 14 80 25 108 44 100 66 -5 12 -17 14 -64 8 -32 -3 -69 -14 -83 -24 -20
-15 -32 -17 -63 -10 -21 5 -46 16 -56 25 -12 11 -28 14 -53 10 -21 -4 -38 -2
-42 5 -8 13 -25 15 -27 4z"/>
<path d="M1658 519 c-19 -11 -24 -29 -8 -29 5 0 14 9 20 20 12 23 12 23 -12 9z"/>
<path d="M1626 455 c-3 -8 0 -19 7 -25 7 -5 26 -21 42 -36 29 -26 87 -67 129
-91 25 -15 100 -17 91 -3 -3 5 -20 12 -38 15 -43 9 -74 32 -60 46 5 5 52 12
104 14 52 2 113 6 136 10 23 4 54 5 68 1 21 -5 24 -11 19 -31 -3 -14 -3 -25 0
-25 10 0 116 74 116 81 0 14 -26 16 -80 8 -184 -27 -205 -29 -294 -19 -172 20
-216 30 -216 51 0 23 -15 25 -24 4z"/>
<path d="M2045 315 c-19 -15 -19 -15 10 -13 17 2 29 7 28 13 -3 16 -18 16 -38
0z"/>
<path d="M3918 158 c-26 -46 -50 -100 -53 -121 l-7 -37 65 0 64 0 7 46 c11 86
7 150 -11 173 -18 21 -18 21 -65 -61z"/>
<path d="M745 210 c4 -6 11 -8 16 -5 14 9 11 15 -7 15 -8 0 -12 -5 -9 -10z"/>
<path d="M1070 73 c0 -9 -12 -30 -27 -46 l-28 -29 35 4 c33 3 35 5 38 46 2 25
-1 42 -7 42 -6 0 -11 -8 -11 -17z"/>
</g>
</svg>
